<svg width="1354" height="1032" viewBox="0 0 1354 1032" fill="none" xmlns="http://www.w3.org/2000/svg">
<g opacity="0.199997">
<g opacity="0.199997">
<path opacity="0.199997" d="M1076.6 540.961C1072.4 540.961 1068.43 539.95 1065.12 538.041L983.929 491.161C983.269 490.866 982.632 490.542 982.027 490.193L854.093 416.322C848.807 413.269 845.653 408.069 845.653 402.414C845.656 396.757 848.812 391.56 854.097 388.51L982.043 314.64C985.353 312.728 989.327 311.716 993.528 311.716C997.731 311.716 1001.7 312.728 1005.01 314.638L1086.21 361.524C1086.89 361.825 1087.53 362.153 1088.14 362.508L1216.04 436.352C1221.32 439.402 1224.48 444.6 1224.48 450.258C1224.48 455.917 1221.32 461.114 1216.04 464.166L1088.09 538.038C1084.78 539.95 1080.81 540.961 1076.6 540.961Z" fill="white"/>
</g>
<g opacity="0.199997">
<path opacity="0.199997" d="M982.436 315.322C985.719 313.426 989.736 312.478 993.853 312.58C997.792 312.58 1002.13 313.886 1005.24 315.676L1080.57 359.175C1080.6 359.184 1081.74 359.844 1081.77 359.858L1086.2 362.419C1086.84 362.702 1087.55 363.072 1088.12 363.404L1215.65 437.034C1218.34 438.59 1220.34 440.728 1221.52 443.115C1222.84 445.328 1223.17 448.056 1223.17 450.668C1223.17 455.972 1219.41 461.311 1214.45 464.172L1091.03 535.431C1090.97 535.466 1087.56 537.414 1087.48 537.426C1085.2 538.68 1082.6 539.49 1079.9 539.822C1078.72 540.004 1077.33 539.991 1076.1 539.991C1072.16 539.991 1067.87 538.718 1064.76 536.926L985.475 491.144C985.448 491.135 984.228 490.432 984.205 490.419C983.585 490.143 982.876 489.774 982.308 489.446L854.487 415.64C851.753 414.062 849.731 411.882 848.548 409.451C847.268 407.263 846.951 404.578 846.951 402.011C846.952 396.707 850.697 391.379 855.653 388.52L982.436 315.322Z" fill="#F2F2F2"/>
</g>
<g opacity="0.199997">
<path opacity="0.199997" d="M982.831 316.003C986.084 314.125 990.143 313.239 994.177 313.446C997.855 313.446 1002.57 315.043 1005.46 316.715L1080.57 360.086C1080.63 360.106 1081.72 360.733 1081.77 360.759L1086.19 363.314C1086.78 363.578 1087.57 363.99 1088.1 364.302L1215.25 437.717C1217.96 439.278 1219.82 441.454 1220.74 443.79C1221.97 445.857 1221.86 448.641 1221.86 451.078C1221.86 456.029 1217.49 461.509 1212.86 464.179L1090.41 534.878C1090.29 534.947 1087.03 536.791 1086.87 536.814C1084.58 538.006 1081.98 538.738 1079.33 538.975C1078.23 539.145 1076.74 539.021 1075.59 539.021C1071.91 539.021 1067.31 537.483 1064.41 535.813L985.745 490.391C985.692 490.371 984.527 489.705 984.481 489.677C983.904 489.419 983.12 489.005 982.591 488.699L854.881 414.958C852.14 413.375 850.251 411.162 849.337 408.782C848.143 406.741 848.247 404.003 848.247 401.607C848.248 396.658 852.584 391.201 857.208 388.531L982.831 316.003Z" fill="#E6E6E6"/>
</g>
<g opacity="0.199997">
<path opacity="0.199997" d="M983.224 316.686C986.449 314.823 990.552 314.002 994.501 314.31C997.916 314.31 1003 316.202 1005.69 317.754L1080.58 360.996C1080.65 361.027 1081.7 361.622 1081.77 361.662L1086.18 364.21C1086.73 364.454 1087.59 364.91 1088.08 365.198L1214.86 438.398C1217.57 439.966 1219.31 442.179 1219.95 444.466C1221.09 446.384 1220.56 449.224 1220.56 451.487C1220.56 456.086 1215.57 461.707 1211.28 464.186L1089.8 534.324C1089.62 534.43 1086.5 536.168 1086.27 536.2C1083.97 537.334 1081.36 537.986 1078.77 538.13C1077.75 538.287 1076.15 538.051 1075.09 538.051C1071.67 538.051 1066.75 536.25 1064.05 534.698L986.016 489.638C985.936 489.608 984.825 488.975 984.756 488.936C984.221 488.695 983.364 488.236 982.872 487.952L855.275 414.276C852.527 412.688 850.772 410.44 850.128 408.114C849.019 406.218 849.543 403.43 849.543 401.204C849.544 396.607 854.471 391.02 858.764 388.544L983.224 316.686Z" fill="#D9D9D9"/>
</g>
<g opacity="0.199997">
<path opacity="0.199997" d="M983.617 317.367C986.815 315.522 990.961 314.763 994.825 315.174C997.977 315.174 1003.43 317.359 1005.91 318.793L1080.58 361.907C1080.69 361.947 1081.68 362.511 1081.77 362.563L1086.17 365.105C1086.68 365.331 1087.6 365.829 1088.06 366.095L1214.46 439.081C1217.19 440.654 1218.79 442.905 1219.17 445.142C1220.22 446.913 1219.25 449.809 1219.25 451.897C1219.25 456.142 1213.65 461.903 1209.69 464.193L1089.18 533.77C1088.94 533.911 1085.97 535.545 1085.66 535.589C1083.35 536.659 1080.74 537.233 1078.2 537.283C1077.26 537.429 1075.56 537.082 1074.58 537.082C1071.43 537.082 1066.18 535.015 1063.7 533.583L986.287 488.885C986.18 488.845 985.125 488.247 985.033 488.194C984.537 487.971 983.608 487.469 983.153 487.206L855.669 413.594C852.912 412.002 851.293 409.719 850.917 407.445C849.893 405.695 850.839 402.854 850.839 400.801C850.841 396.558 856.356 390.842 860.32 388.555L983.617 317.367Z" fill="#CCCCCC"/>
</g>
<g opacity="0.199997">
<path opacity="0.199997" d="M984.012 318.05C987.18 316.22 991.37 315.524 995.15 316.04C998.04 316.04 1003.86 318.518 1006.13 319.831L1080.58 362.819C1080.71 362.868 1081.66 363.4 1081.77 363.466L1086.16 366C1086.63 366.207 1087.62 366.747 1088.04 366.992L1214.07 439.762C1216.81 441.342 1218.27 443.63 1218.38 445.819C1219.35 447.442 1217.94 450.392 1217.94 452.307C1217.94 456.198 1211.74 462.102 1208.1 464.199L1088.57 533.216C1088.26 533.394 1085.44 534.92 1085.05 534.976C1082.73 535.986 1080.12 536.482 1077.64 536.436C1076.77 536.57 1074.98 536.112 1074.07 536.112C1071.18 536.112 1065.62 533.783 1063.35 532.47L986.556 488.132C986.425 488.082 985.424 487.519 985.309 487.451C984.854 487.248 983.852 486.699 983.436 486.459L856.062 412.912C853.298 411.316 851.814 408.999 851.706 406.776C850.768 405.172 852.136 402.28 852.136 400.396C852.137 396.508 858.242 390.662 861.874 388.566L984.012 318.05Z" fill="#BFBFBF"/>
</g>
<g opacity="0.199997">
<path opacity="0.199997" d="M984.405 318.732C987.544 316.918 991.778 316.286 995.474 316.904C998.1 316.904 1004.29 319.676 1006.36 320.87L1080.59 363.73C1080.74 363.789 1081.64 364.289 1081.78 364.368L1086.15 366.896C1086.57 367.084 1087.63 367.666 1088.01 367.889L1213.68 440.444C1216.42 442.029 1217.76 444.354 1217.6 446.494C1218.47 447.969 1216.64 450.976 1216.64 452.717C1216.64 456.254 1209.82 462.298 1206.52 464.205L1087.95 532.662C1087.58 532.874 1084.91 534.297 1084.44 534.365C1082.11 535.313 1079.5 535.729 1077.07 535.59C1076.29 535.71 1074.39 535.142 1073.57 535.142C1070.94 535.142 1065.06 532.549 1062.99 531.354L986.826 487.378C986.668 487.318 985.722 486.789 985.585 486.709C985.172 486.525 984.097 485.93 983.717 485.712L856.457 412.23C853.684 410.629 852.334 408.277 852.496 406.108C851.644 404.649 853.432 401.705 853.432 399.993C853.433 396.457 860.128 390.482 863.432 388.577L984.405 318.732Z" fill="#B3B3B3"/>
</g>
<g opacity="0.199997">
<path opacity="0.199997" d="M984.8 319.414C987.91 317.618 992.186 317.048 995.798 317.77C998.162 317.77 1004.72 320.834 1006.58 321.908L1080.59 364.64C1080.77 364.71 1081.62 365.178 1081.78 365.271L1086.14 367.791C1086.52 367.96 1087.65 368.586 1087.99 368.786L1213.28 441.126C1216.04 442.718 1217.24 445.08 1216.81 447.17C1217.6 448.498 1215.33 451.56 1215.33 453.127C1215.33 456.31 1207.9 462.496 1204.93 464.214L1087.34 532.108C1086.91 532.357 1084.38 533.675 1083.83 533.752C1081.5 534.639 1078.88 534.976 1076.5 534.744C1075.8 534.854 1073.8 534.172 1073.06 534.172C1070.7 534.172 1064.5 531.315 1062.64 530.242L987.097 486.626C986.913 486.555 986.021 486.06 985.861 485.968C985.49 485.802 984.34 485.163 983.998 484.966L856.85 411.55C854.069 409.943 852.856 407.556 853.286 405.439C852.518 404.127 854.728 401.131 854.728 399.59C854.729 396.408 862.013 390.303 864.986 388.588L984.8 319.414Z" fill="#A6A6A6"/>
</g>
<g opacity="0.199997">
<path opacity="0.199997" d="M985.193 320.096C988.275 318.317 992.595 317.81 996.122 318.634C998.223 318.634 1005.15 321.992 1006.8 322.946L1080.59 365.552C1080.8 365.63 1081.6 366.066 1081.78 366.172L1086.13 368.685C1086.47 368.836 1087.67 369.504 1087.97 369.682L1212.89 441.808C1215.66 443.405 1216.72 445.805 1216.02 447.846C1216.73 449.026 1214.02 452.144 1214.02 453.537C1214.02 456.366 1205.99 462.693 1203.34 464.22L1086.72 531.556C1086.23 531.838 1083.85 533.05 1083.22 533.14C1080.88 533.966 1078.26 534.225 1075.94 533.897C1075.31 533.994 1073.21 533.202 1072.55 533.202C1070.45 533.202 1063.94 530.082 1062.28 529.126L987.367 485.872C987.157 485.792 986.321 485.332 986.135 485.225C985.806 485.077 984.583 484.393 984.281 484.218L857.245 410.868C854.455 409.257 853.375 406.836 854.075 404.77C853.393 403.604 856.023 400.556 856.023 399.186C856.026 396.358 863.898 390.124 866.542 388.598L985.193 320.096Z" fill="#999999"/>
</g>
<g opacity="0.199997">
<path opacity="0.199997" d="M985.586 320.778C988.639 319.015 993.003 318.573 996.447 319.499C998.285 319.499 1005.58 323.15 1007.03 323.986L1080.59 366.462C1080.83 366.551 1081.57 366.955 1081.78 367.074L1086.12 369.581C1086.42 369.713 1087.68 370.423 1087.95 370.579L1212.5 442.49C1215.28 444.094 1216.21 446.53 1215.24 448.522C1215.85 449.555 1212.72 452.727 1212.72 453.946C1212.72 456.422 1204.07 462.89 1201.76 464.226L1086.1 531.002C1085.55 531.321 1083.32 532.427 1082.61 532.527C1080.26 533.293 1077.64 533.473 1075.38 533.051C1074.83 533.135 1072.62 532.233 1072.05 532.233C1070.21 532.233 1063.38 528.849 1061.93 528.013L987.638 485.118C987.399 485.029 986.618 484.603 986.411 484.483C986.122 484.354 984.827 483.625 984.562 483.473L857.638 410.185C854.841 408.57 853.895 406.115 854.866 404.102C854.27 403.082 857.321 399.981 857.321 398.782C857.322 396.307 865.785 389.945 868.098 388.611L985.586 320.778Z" fill="#8C8C8C"/>
</g>
<g opacity="0.199997">
<path opacity="0.199997" d="M985.981 321.46C989.006 319.713 993.411 319.334 996.773 320.364C998.347 320.364 1006.01 324.308 1007.25 325.024L1080.6 367.373C1080.86 367.472 1081.55 367.845 1081.78 367.977L1086.11 370.476C1086.36 370.589 1087.7 371.342 1087.93 371.476L1212.1 443.172C1214.89 444.782 1215.69 447.256 1214.45 449.197C1214.98 450.082 1211.41 453.312 1211.41 454.356C1211.41 456.478 1202.15 463.089 1200.17 464.233L1085.49 530.448C1084.88 530.802 1082.79 531.805 1082.01 531.916C1079.65 532.62 1077.02 532.72 1074.81 532.205C1074.34 532.277 1072.03 531.262 1071.54 531.262C1069.96 531.262 1062.81 527.614 1061.57 526.898L987.907 484.365C987.645 484.265 986.917 483.876 986.687 483.741C986.441 483.63 985.07 482.856 984.843 482.725L858.031 409.504C855.227 407.884 854.417 405.394 855.657 403.433C855.145 402.558 858.618 399.406 858.618 398.378C858.618 396.258 867.671 389.765 869.653 388.622L985.981 321.46Z" fill="#808080"/>
</g>
<g opacity="0.199997">
<path opacity="0.199997" d="M986.374 322.142C989.37 320.413 993.82 320.095 997.096 321.227C998.408 321.227 1006.44 325.466 1007.48 326.062L1080.6 368.283C1080.89 368.393 1081.53 368.734 1081.78 368.879L1086.1 371.371C1086.31 371.465 1087.72 372.261 1087.91 372.373L1211.71 443.854C1214.51 445.47 1215.17 447.981 1213.67 449.873C1214.11 450.611 1210.1 453.895 1210.1 454.766C1210.1 456.534 1200.24 463.286 1198.58 464.239L1084.87 529.894C1084.2 530.283 1082.26 531.181 1081.4 531.303C1079.03 531.946 1076.39 531.969 1074.24 531.358C1073.85 531.419 1071.45 530.293 1071.03 530.293C1069.72 530.293 1062.25 526.381 1061.22 525.783L988.179 483.611C987.888 483.503 987.216 483.146 986.963 482.999C986.758 482.907 985.315 482.087 985.124 481.978L858.426 408.821C855.612 407.197 854.938 404.673 856.446 402.765C856.019 402.035 859.912 398.831 859.912 397.975C859.914 396.207 869.556 389.586 871.208 388.633L986.374 322.142Z" fill="#737373"/>
</g>
<g opacity="0.199997">
<path opacity="0.199997" d="M986.768 322.824C989.735 321.111 994.23 320.858 997.42 322.094C998.471 322.094 1006.87 326.624 1007.7 327.102L1080.6 369.195C1080.91 369.314 1081.51 369.623 1081.79 369.78L1086.09 372.267C1086.26 372.342 1087.73 373.18 1087.88 373.268L1211.31 444.535C1214.13 446.158 1214.66 448.706 1212.88 450.55C1213.23 451.139 1208.8 454.479 1208.8 455.176C1208.8 456.591 1198.32 463.483 1197 464.246L1084.25 529.342C1083.52 529.766 1081.73 530.558 1080.79 530.691C1078.41 531.272 1075.77 531.216 1073.68 530.512C1073.36 530.56 1070.86 529.323 1070.53 529.323C1069.48 529.323 1061.69 525.147 1060.86 524.67L988.448 482.858C988.132 482.739 987.515 482.418 987.24 482.258C987.074 482.184 985.559 481.319 985.407 481.232L858.819 408.139C855.999 406.511 855.459 403.952 857.236 402.096C856.895 401.514 861.21 398.258 861.21 397.572C861.21 396.158 871.443 389.407 872.763 388.644L986.768 322.824Z" fill="#666666"/>
</g>
<g opacity="0.199997">
<path opacity="0.199997" d="M987.161 323.506C990.1 321.81 994.637 321.619 997.745 322.958C998.532 322.958 1007.3 327.782 1007.92 328.141L1080.61 370.106C1080.94 370.234 1081.49 370.511 1081.79 370.683L1086.08 373.162C1086.21 373.218 1087.75 374.099 1087.86 374.166L1210.92 445.218C1213.74 446.846 1214.14 449.431 1212.09 451.226C1212.36 451.669 1207.49 455.063 1207.49 455.586C1207.49 456.646 1196.4 463.681 1195.41 464.253L1083.64 528.787C1082.84 529.247 1081.2 529.934 1080.18 530.078C1077.79 530.599 1075.15 530.463 1073.11 529.666C1072.88 529.702 1070.27 528.353 1070.02 528.353C1069.23 528.353 1061.13 523.914 1060.51 523.555L988.719 482.105C988.376 481.977 987.813 481.689 987.516 481.515C987.391 481.459 985.801 480.551 985.689 480.485L859.213 407.457C856.384 405.823 855.979 403.231 858.024 401.427C857.769 400.99 862.505 397.682 862.505 397.169C862.507 396.109 873.328 389.227 874.319 388.655L987.161 323.506Z" fill="#595959"/>
</g>
<g opacity="0.199997">
<path opacity="0.199997" d="M987.555 324.188C990.465 322.508 995.047 322.382 998.069 323.823C998.593 323.823 1007.73 328.94 1008.15 329.179L1080.61 371.018C1080.97 371.155 1081.47 371.4 1081.79 371.586L1086.07 374.056C1086.15 374.095 1087.77 375.019 1087.84 375.063L1210.53 445.899C1213.36 447.534 1213.63 450.156 1211.31 451.902C1211.49 452.196 1206.18 455.647 1206.18 455.995C1206.18 456.703 1194.48 463.878 1193.82 464.259L1083.02 528.233C1082.17 528.729 1080.68 529.311 1079.57 529.465C1077.18 529.925 1074.53 529.712 1072.55 528.819C1072.39 528.843 1069.68 527.383 1069.52 527.383C1068.99 527.383 1060.57 522.68 1060.15 522.442L988.989 481.352C988.62 481.214 988.112 480.96 987.791 480.774C987.708 480.736 986.047 479.782 985.971 479.739L859.607 406.775C856.769 405.138 856.5 402.511 858.815 400.759C858.644 400.467 863.803 397.107 863.803 396.766C863.803 396.058 875.213 389.048 875.875 388.667L987.555 324.188Z" fill="#4D4D4D"/>
</g>
<g opacity="0.199997">
<path opacity="0.199997" d="M987.949 324.87C990.831 323.206 995.455 323.143 998.393 324.687C998.656 324.687 1008.17 330.098 1008.37 330.218L1080.61 371.927C1081 372.075 1081.45 372.29 1081.79 372.487L1086.06 374.952C1086.1 374.971 1087.78 375.936 1087.82 375.959L1210.13 446.582C1212.98 448.222 1213.11 450.882 1210.52 452.576C1210.61 452.724 1204.87 456.231 1204.87 456.404C1204.87 456.759 1192.57 464.075 1192.24 464.266L1082.41 527.679C1081.49 528.211 1080.15 528.687 1078.96 528.854C1076.56 529.252 1073.91 528.959 1071.98 527.972C1071.9 527.984 1069.09 526.414 1069.01 526.414C1068.75 526.414 1060 521.447 1059.8 521.327L989.259 480.598C988.865 480.45 988.412 480.231 988.067 480.031C988.027 480.012 986.291 479.014 986.253 478.991L860.001 406.092C857.156 404.451 857.021 401.79 859.604 400.091C859.52 399.944 865.097 396.534 865.097 396.362C865.099 396.008 877.1 388.868 877.429 388.678L987.949 324.87Z" fill="#404040"/>
</g>
<g opacity="0.199997">
<path opacity="0.199997" d="M1209.74 447.263L1081.79 373.39C1081.43 373.179 1081.03 372.996 1080.61 372.839L998.717 325.553C995.864 323.905 991.196 323.905 988.342 325.553L860.394 399.422C857.542 401.068 857.542 403.764 860.394 405.411L988.342 479.29C988.71 479.503 989.108 479.686 989.53 479.846L1071.42 527.126C1074.27 528.774 1078.94 528.774 1081.79 527.126L1209.74 453.252C1212.59 451.607 1212.59 448.91 1209.74 447.263Z" fill="#333333"/>
</g>
</g>
<g opacity="0.199997">
<g opacity="0.199997">
<path opacity="0.199997" d="M340.193 906.613C336.459 906.613 330.913 905.981 325.706 902.975L178.403 817.921C172.345 814.423 168.727 808.579 168.727 802.285C168.727 795.992 172.345 790.145 178.403 786.648L380.267 670.104C380.734 669.833 381.235 669.569 381.775 669.308L415.857 649.632C421.065 646.625 426.609 645.995 430.341 645.995C434.075 645.995 439.617 646.625 444.823 649.632L592.134 734.681C598.191 738.179 601.809 744.025 601.809 750.317C601.809 756.611 598.191 762.457 592.133 765.956L390.269 882.504C389.778 882.785 389.279 883.049 388.751 883.304L354.677 902.979C349.47 905.983 343.926 906.613 340.193 906.613Z" fill="white"/>
</g>
<g opacity="0.199997">
<path opacity="0.199997" d="M380.661 670.786C381.119 670.52 381.611 670.261 382.141 670.005L415.922 650.502C417.943 649.336 420.347 648.362 422.334 647.841C425.263 647.038 428.043 646.797 430.246 646.786C433.278 646.769 437.419 647.192 441.549 648.905C442.511 649.298 443.635 649.856 444.589 650.406L590.603 734.706C596.282 737.985 600.569 743.982 600.569 749.882C600.569 751.497 600.557 753.218 600.073 754.732C599.066 758.918 596.147 762.728 591.739 765.273L390.425 881.504C389.966 881.768 389.411 882.065 388.917 882.304L381.203 886.758C381.183 886.769 380.162 887.357 380.139 887.368L354.93 901.924C351.117 904.122 346.463 905.338 343.225 905.602C342.273 905.702 341.378 905.752 340.561 905.768C336.783 905.862 331.218 905.249 326.101 902.293L179.963 817.913C174.282 814.633 169.979 808.626 169.979 802.726C169.979 801.021 170.01 799.205 170.55 797.612C171.597 793.534 174.477 789.824 178.798 787.33L380.661 670.786Z" fill="#F2F2F2"/>
</g>
<g opacity="0.199997">
<path opacity="0.199997" d="M381.055 671.469C381.505 671.207 381.988 670.954 382.505 670.705L415.988 651.374C417.875 650.285 420.469 649.173 422.323 648.689C425.18 647.869 427.932 647.601 430.151 647.577C433.212 647.545 437.317 647.979 441.347 649.681C442.245 650.047 443.465 650.666 444.356 651.179L589.073 734.731C594.373 737.793 599.329 743.942 599.329 749.449C599.329 750.954 599.576 752.71 599.123 754.122C598.484 758.203 595.76 762.043 591.345 764.591L390.583 880.505C390.153 880.751 389.544 881.081 389.083 881.303L381.388 885.746C381.347 885.771 380.369 886.33 380.324 886.351L355.184 900.867C351.625 902.921 346.591 904.454 343.568 904.701C342.633 904.819 341.747 904.887 340.928 904.923C337.107 905.111 331.525 904.515 326.495 901.611L181.524 817.905C176.221 814.843 171.231 808.674 171.231 803.167C171.231 801.577 170.989 799.725 171.493 798.238C172.171 794.259 174.86 790.513 179.192 788.013L381.055 671.469Z" fill="#E6E6E6"/>
</g>
<g opacity="0.199997">
<path opacity="0.199997" d="M381.448 672.15C381.891 671.894 382.365 671.646 382.871 671.403L416.055 652.244C417.807 651.234 420.589 649.986 422.311 649.535C425.097 648.696 427.821 648.402 430.055 648.368C433.144 648.319 437.216 648.768 441.145 650.456C441.98 650.796 443.296 651.476 444.121 651.955L587.543 734.758C592.464 737.6 598.089 743.9 598.089 749.014C598.089 750.412 598.593 752.202 598.173 753.512C597.901 757.487 595.372 761.356 590.952 763.91L390.739 879.506C390.34 879.734 389.676 880.098 389.248 880.303L381.572 884.735C381.509 884.772 380.577 885.303 380.508 885.335L355.437 899.811C352.133 901.718 346.719 903.568 343.912 903.798C342.993 903.938 342.115 904.026 341.296 904.078C337.431 904.36 331.831 903.784 326.888 900.93L183.083 817.896C178.16 815.054 172.483 808.723 172.483 803.61C172.483 802.131 171.969 800.246 172.437 798.864C172.744 794.984 175.241 791.202 179.585 788.694L381.448 672.15Z" fill="#D9D9D9"/>
</g>
<g opacity="0.199997">
<path opacity="0.199997" d="M381.842 672.832C382.276 672.581 382.74 672.339 383.236 672.101L416.12 653.117C417.738 652.183 420.71 650.799 422.299 650.381C425.014 649.525 427.71 649.205 429.959 649.159C433.076 649.093 437.114 649.557 440.944 651.232C441.714 651.547 443.124 652.288 443.888 652.729L586.012 734.784C590.555 737.407 596.85 743.86 596.85 748.58C596.85 749.871 597.612 751.693 597.224 752.904C597.319 756.772 594.984 760.672 590.558 763.228L390.895 878.505C390.527 878.716 389.808 879.113 389.412 879.304L381.756 883.724C381.672 883.773 380.784 884.277 380.692 884.319L355.691 898.755C352.64 900.516 346.846 902.685 344.255 902.896C343.354 903.055 342.482 903.164 341.664 903.233C337.755 903.609 332.136 903.051 327.282 900.248L184.643 817.887C180.098 815.263 173.734 808.771 173.734 804.051C173.734 802.687 172.948 800.765 173.38 799.492C173.318 795.709 175.622 791.891 179.979 789.376L381.842 672.832Z" fill="#CCCCCC"/>
</g>
<g opacity="0.199997">
<path opacity="0.199997" d="M382.236 673.514C382.661 673.266 383.117 673.032 383.601 672.8L416.186 653.988C417.669 653.132 420.83 651.609 422.288 651.229C424.932 650.354 427.598 650.008 429.865 649.95C433.009 649.869 437.012 650.345 440.742 652.008C441.448 652.297 442.954 653.098 443.653 653.502L584.482 734.81C588.646 737.213 595.612 743.82 595.612 748.146C595.612 749.328 596.63 751.185 596.276 752.294C596.737 756.057 594.597 759.986 590.164 762.545L391.05 877.506C390.714 877.7 389.941 878.129 389.577 878.304L381.941 882.713C381.836 882.773 380.992 883.252 380.877 883.304L355.945 897.7C353.149 899.313 346.973 901.8 344.598 901.992C343.713 902.173 342.85 902.301 342.032 902.388C338.078 902.86 332.442 902.318 327.676 899.566L186.202 817.878C182.037 815.473 174.985 808.82 174.985 804.492C174.985 803.242 173.928 801.286 174.324 800.118C173.892 796.434 176.005 792.58 180.373 790.058L382.236 673.514Z" fill="#BFBFBF"/>
</g>
<g opacity="0.199997">
<path opacity="0.199997" d="M382.629 674.195C383.046 673.954 383.493 673.723 383.966 673.499L416.253 654.859C417.601 654.081 420.952 652.422 422.276 652.075C424.849 651.182 427.488 650.811 429.769 650.741C432.941 650.643 436.909 651.134 440.541 652.783C441.182 653.047 442.785 653.91 443.42 654.278L582.952 734.835C586.737 737.021 594.372 743.778 594.372 747.711C594.372 748.786 595.649 750.675 595.326 751.685C596.156 755.342 594.21 759.301 589.77 761.863L391.208 876.506C390.901 876.682 390.073 877.146 389.742 877.303L382.125 881.703C381.998 881.775 381.2 882.225 381.062 882.286L356.2 896.643C353.657 898.11 347.101 900.914 344.941 901.09C344.073 901.291 343.218 901.439 342.4 901.543C338.404 902.109 332.748 901.586 328.07 898.885L187.762 817.87C183.976 815.682 176.237 808.867 176.237 804.934C176.237 803.797 174.908 801.806 175.268 800.745C174.465 797.161 176.386 793.269 180.766 790.739L382.629 674.195Z" fill="#B3B3B3"/>
</g>
<g opacity="0.199997">
<path opacity="0.199997" d="M383.023 674.878C383.432 674.64 383.869 674.416 384.332 674.198L416.319 655.731C417.531 655.03 421.072 653.235 422.264 652.922C424.767 652.011 427.376 651.614 429.673 651.532C432.875 651.418 436.807 651.922 440.339 653.56C440.916 653.795 442.615 654.722 443.187 655.051L581.421 734.86C584.828 736.828 593.132 743.738 593.132 747.276C593.132 748.244 594.667 750.168 594.377 751.075C595.573 754.628 593.823 758.615 589.377 761.182L391.364 875.507C391.088 875.666 390.205 876.162 389.908 876.303L382.309 880.691C382.161 880.776 381.407 881.199 381.247 881.271L356.453 895.587C354.164 896.907 347.228 900.03 345.285 900.187C344.433 900.408 343.587 900.575 342.768 900.698C338.727 901.358 333.053 900.852 328.464 898.202L189.323 817.86C185.913 815.894 177.488 808.915 177.488 805.375C177.488 804.351 175.887 802.327 176.212 801.371C175.039 797.886 176.768 793.958 181.16 791.422L383.023 674.878Z" fill="#A6A6A6"/>
</g>
<g opacity="0.199997">
<path opacity="0.199997" d="M383.417 675.56C383.818 675.328 384.246 675.109 384.697 674.896L416.385 656.601C417.462 655.979 421.193 654.047 422.251 653.768C424.683 652.839 427.266 652.417 429.578 652.323C432.806 652.193 436.705 652.711 440.138 654.336C440.651 654.545 442.445 655.532 442.953 655.825L579.89 734.887C582.919 736.636 591.893 743.696 591.893 746.841C591.893 747.703 593.686 749.659 593.427 750.467C594.991 753.912 593.435 757.929 588.983 760.5L391.521 874.508C391.275 874.648 390.338 875.177 390.074 875.305L382.494 879.681C382.326 879.777 381.614 880.172 381.431 880.255L356.707 894.532C354.673 895.704 347.357 899.144 345.629 899.285C344.793 899.528 343.954 899.713 343.135 899.853C339.051 900.607 333.359 900.12 328.858 897.521L190.882 817.852C187.853 816.103 178.739 808.964 178.739 805.816C178.739 804.907 176.867 802.847 177.155 801.997C175.613 798.609 177.15 794.645 181.554 792.104L383.417 675.56Z" fill="#999999"/>
</g>
<g opacity="0.199997">
<path opacity="0.199997" d="M383.81 676.242C384.202 676.014 384.621 675.801 385.061 675.594L416.449 657.473C417.393 656.929 421.313 654.858 422.24 654.615C424.601 653.667 427.154 653.218 429.482 653.114C432.738 652.966 436.602 653.499 439.936 655.111C440.385 655.295 442.273 656.342 442.718 656.601L578.36 734.913C581.009 736.442 590.653 743.654 590.653 746.407C590.653 747.159 592.704 749.151 592.477 749.858C594.409 753.197 593.046 757.243 588.589 759.818L391.676 873.507C391.462 873.63 390.47 874.193 390.238 874.305L382.677 878.67C382.489 878.778 381.822 879.146 381.616 879.239L356.96 893.475C355.181 894.501 347.484 898.259 345.972 898.382C345.153 898.646 344.322 898.851 343.504 899.007C339.374 899.855 333.665 899.386 329.252 896.838L192.441 817.843C189.79 816.313 179.992 809.01 179.992 806.258C179.992 805.462 177.846 803.367 178.098 802.623C176.186 799.334 177.532 795.335 181.948 792.786L383.81 676.242Z" fill="#8C8C8C"/>
</g>
<g opacity="0.199997">
<path opacity="0.199997" d="M384.204 676.924C384.588 676.7 384.998 676.494 385.427 676.292L416.515 658.343C417.324 657.878 421.434 655.671 422.228 655.462C424.518 654.496 427.043 654.02 429.387 653.906C432.672 653.74 436.5 654.287 439.734 655.888C440.12 656.044 442.103 657.154 442.484 657.374L576.83 734.938C579.1 736.25 589.414 743.614 589.414 745.972C589.414 746.619 591.723 748.643 591.528 749.248C593.827 752.482 592.659 756.558 588.195 759.135L391.834 872.508C391.648 872.614 390.602 873.208 390.404 873.304L382.862 877.659C382.652 877.78 382.03 878.119 381.8 878.224L357.214 892.419C355.688 893.299 347.611 897.375 346.315 897.48C345.512 897.763 344.691 897.988 343.871 898.163C339.699 899.106 333.971 898.654 329.646 896.156L194.002 817.835C191.73 816.523 181.243 809.059 181.243 806.699C181.243 806.016 178.826 803.888 179.042 803.25C176.76 800.06 177.912 796.024 182.342 793.468L384.204 676.924Z" fill="#808080"/>
</g>
<g opacity="0.199997">
<path opacity="0.199997" d="M384.598 677.605C384.974 677.388 385.375 677.187 385.792 676.992L416.582 659.215C417.256 658.827 421.554 656.483 422.216 656.308C424.435 655.324 426.931 654.824 429.292 654.696C432.604 654.516 436.399 655.078 439.534 656.664C439.854 656.795 441.934 657.965 442.251 658.148L575.299 734.964C577.192 736.057 588.174 743.572 588.174 745.537C588.174 746.077 590.74 748.134 590.579 748.639C593.244 751.767 592.272 755.872 587.802 758.453L391.99 871.508C391.836 871.596 390.735 872.225 390.57 872.304L383.046 876.648C382.815 876.781 382.236 877.093 381.986 877.207L357.468 891.363C356.196 892.096 347.739 896.489 346.659 896.577C345.874 896.881 345.059 897.127 344.239 897.317C340.023 898.355 334.278 897.921 330.04 895.473L195.562 817.825C193.668 816.733 182.494 809.107 182.494 807.14C182.494 806.572 179.806 804.408 179.986 803.876C177.334 800.785 178.294 796.713 182.735 794.149L384.598 677.605Z" fill="#737373"/>
</g>
<g opacity="0.199997">
<path opacity="0.199997" d="M384.992 678.288C385.36 678.074 385.75 677.878 386.158 677.69L416.648 660.086C417.186 659.776 421.676 657.294 422.205 657.156C424.353 656.153 426.821 655.626 429.197 655.488C432.537 655.29 436.297 655.865 439.332 657.44C439.589 657.544 441.764 658.776 442.017 658.922L573.769 734.989C575.284 735.865 586.936 743.532 586.936 745.104C586.936 745.534 589.76 747.626 589.63 748.03C592.662 751.052 591.885 755.186 587.409 757.77L392.146 870.509C392.024 870.58 390.868 871.241 390.734 871.305L383.23 875.638C382.978 875.781 382.445 876.068 382.17 876.192L357.722 890.308C356.705 890.893 347.866 895.604 347.002 895.674C346.233 896 345.428 896.262 344.606 896.473C340.348 897.604 334.584 897.189 330.434 894.793L197.121 817.817C195.606 816.942 183.746 809.154 183.746 807.582C183.746 807.128 180.785 804.928 180.93 804.502C177.908 801.51 178.677 797.402 183.129 794.832L384.992 678.288Z" fill="#666666"/>
</g>
<g opacity="0.199997">
<path opacity="0.199997" d="M385.385 678.97C385.745 678.762 386.127 678.571 386.523 678.387L416.713 660.958C417.117 660.723 421.796 658.107 422.192 658.002C424.269 656.982 426.709 656.43 429.101 656.278C432.469 656.065 436.193 656.654 439.131 658.215C439.323 658.294 441.592 659.587 441.783 659.697L572.239 735.015C573.375 735.67 585.695 743.49 585.695 744.669C585.695 744.993 588.777 747.117 588.681 747.421C592.08 750.337 591.497 754.501 587.015 757.089L392.303 869.509C392.211 869.562 390.999 870.257 390.9 870.305L383.415 874.626C383.141 874.782 382.652 875.042 382.355 875.175L357.976 889.251C357.213 889.691 347.993 894.721 347.345 894.773C346.593 895.117 345.796 895.401 344.975 895.627C340.671 896.853 334.889 896.455 330.828 894.11L198.681 817.809C197.544 817.153 184.997 809.203 184.997 808.023C184.997 807.682 181.765 805.447 181.873 805.13C178.481 802.235 179.057 798.091 183.523 795.514L385.385 678.97Z" fill="#595959"/>
</g>
<g opacity="0.199997">
<path opacity="0.199997" d="M385.779 679.651C386.131 679.448 386.503 679.263 386.888 679.087L416.78 661.83C417.049 661.674 421.916 658.919 422.181 658.848C424.187 657.81 426.599 657.232 429.005 657.07C432.401 656.84 436.092 657.443 438.928 658.991C439.056 659.044 441.423 660.398 441.549 660.471L570.708 735.042C571.465 735.478 584.456 743.448 584.456 744.235C584.456 744.451 587.796 746.61 587.732 746.811C591.499 749.622 591.109 753.815 586.621 756.407L392.459 868.51C392.397 868.544 391.132 869.274 391.065 869.304L383.599 873.616C383.305 873.784 382.86 874.014 382.539 874.159L358.229 888.195C357.721 888.488 348.121 893.835 347.689 893.87C346.953 894.235 346.164 894.539 345.343 894.783C340.996 896.102 335.195 895.724 331.221 893.428L200.24 817.799C199.483 817.362 186.249 809.251 186.249 808.464C186.249 808.236 182.745 805.968 182.816 805.756C179.056 802.96 179.44 798.78 183.916 796.195L385.779 679.651Z" fill="#4D4D4D"/>
</g>
<g opacity="0.199997">
<path opacity="0.199997" d="M386.172 680.333C386.515 680.136 386.879 679.956 387.254 679.787L416.846 662.7C416.98 662.623 422.036 659.731 422.17 659.696C424.104 658.639 426.487 658.035 428.91 657.861C432.335 657.615 435.99 658.231 438.727 659.767C438.791 659.793 441.252 661.208 441.315 661.245L569.178 735.067C569.556 735.285 583.216 743.408 583.216 743.801C583.216 743.908 586.815 746.1 586.783 746.201C590.916 748.907 590.722 753.131 586.227 755.725L392.615 867.511C392.584 867.528 391.263 868.289 391.23 868.305L383.783 872.604C383.468 872.785 383.067 872.988 382.723 873.143L358.483 887.139C358.228 887.287 348.248 892.951 348.032 892.968C347.312 893.353 346.532 893.676 345.71 893.937C341.319 895.352 335.5 894.991 331.615 892.748L201.8 817.792C201.422 817.573 187.5 809.3 187.5 808.907C187.5 808.793 183.724 806.488 183.76 806.383C179.63 803.687 179.822 799.469 184.31 796.877L386.172 680.333Z" fill="#404040"/>
</g>
<g opacity="0.199997">
<path opacity="0.199997" d="M585.833 745.592L438.525 660.543C434.024 657.944 426.659 657.944 422.157 660.543L387.619 680.484C387.256 680.648 386.901 680.822 386.567 681.015L184.704 797.56C180.203 800.158 180.203 804.411 184.704 807.01L332.009 892.064C336.509 894.664 343.875 894.664 348.376 892.064L382.908 872.127C383.275 871.962 383.632 871.787 383.968 871.594L585.833 755.043C590.335 752.444 590.335 748.191 585.833 745.592Z" fill="#333333"/>
</g>
</g>
<g opacity="0.199997">
<g opacity="0.199997">
<path opacity="0.199997" d="M768.038 711.773C764.6 711.773 759.49 711.189 754.663 708.399L580.211 607.67C574.442 604.339 570.996 598.734 570.996 592.676C570.996 586.619 574.442 581.012 580.212 577.679L754.666 476.959C759.494 474.174 764.6 473.588 768.038 473.588C771.474 473.588 776.583 474.174 781.41 476.962L955.86 577.688C961.632 581.019 965.079 586.623 965.079 592.683C965.079 598.739 961.632 604.344 955.86 607.678L781.408 708.399C776.583 711.189 771.474 711.773 768.038 711.773Z" fill="white"/>
</g>
<g opacity="0.199997">
<path opacity="0.199997" d="M755.058 477.641C759.785 474.915 764.876 474.345 768.336 474.419C769.193 474.435 770.142 474.5 771.161 474.607C774.077 474.913 778.148 475.987 781.541 477.947L954.6 577.868C960.012 580.991 963.926 586.749 964.109 592.427C964.232 596.212 962.989 599.867 960.408 602.88C959.054 604.459 957.073 606.068 955.129 607.191L781.597 707.38C777.922 709.505 773.485 710.568 770.445 710.812C769.706 710.872 769.013 710.917 768.368 710.931C764.905 711.019 759.79 710.453 755.057 707.716L581.516 607.513C576.108 604.391 572.158 598.605 571.966 592.931C571.844 589.345 572.948 585.873 575.285 582.951C576.702 581.179 578.866 579.365 581.001 578.133L755.058 477.641Z" fill="#F2F2F2"/>
</g>
<g opacity="0.199997">
<path opacity="0.199997" d="M755.453 478.323C760.077 475.655 765.152 475.111 768.633 475.25C769.489 475.283 770.426 475.376 771.425 475.491C774.142 475.807 778.506 477.103 781.674 478.934L953.34 578.05C958.39 580.964 962.79 586.882 963.14 592.172C963.382 595.871 962.316 599.475 959.685 602.472C958.405 603.931 956.212 605.655 954.397 606.703L781.788 706.362C778.357 708.346 773.592 709.662 770.757 709.924C770.032 709.992 769.342 710.062 768.701 710.09C765.209 710.263 760.092 709.718 755.45 707.035L582.821 607.356C577.773 604.443 573.302 598.472 572.936 593.186C572.692 589.671 573.637 586.242 576.034 583.327C577.38 581.691 579.797 579.738 581.789 578.587L755.453 478.323Z" fill="#E6E6E6"/>
</g>
<g opacity="0.199997">
<path opacity="0.199997" d="M755.846 479.005C760.368 476.396 765.426 475.871 768.93 476.08C769.785 476.131 770.709 476.252 771.688 476.376C774.208 476.696 778.866 478.22 781.806 479.919L952.08 578.232C956.768 580.937 961.676 587.017 962.17 591.917C962.537 595.544 961.645 599.083 958.961 602.065C957.757 603.404 955.35 605.244 953.665 606.217L781.977 705.343C778.792 707.185 773.696 708.756 771.066 709.035C770.353 709.111 769.673 709.205 769.032 709.248C765.516 709.508 760.393 708.981 755.844 706.353L584.125 607.201C579.438 604.495 574.425 598.336 573.905 593.441C573.538 589.981 574.321 586.612 576.782 583.701C578.052 582.201 580.728 580.109 582.577 579.041L755.846 479.005Z" fill="#D9D9D9"/>
</g>
<g opacity="0.199997">
<path opacity="0.199997" d="M756.24 479.687C760.658 477.137 765.702 476.63 769.229 476.91C770.081 476.978 770.99 477.127 771.95 477.261C774.273 477.583 779.224 479.335 781.938 480.903L950.818 578.413C955.148 580.911 960.582 587.159 961.201 591.661C961.692 595.233 960.973 598.687 958.238 601.657C957.111 602.881 954.49 604.831 952.934 605.73L782.166 704.325C779.226 706.025 773.801 707.858 771.378 708.147C770.674 708.23 770.002 708.349 769.362 708.406C765.821 708.753 760.694 708.246 756.238 705.67L585.43 607.046C581.102 604.547 575.521 598.193 574.876 593.697C574.384 590.279 575.006 586.983 577.531 584.078C578.722 582.709 581.658 580.482 583.366 579.494L756.24 479.687Z" fill="#CCCCCC"/>
</g>
<g opacity="0.199997">
<path opacity="0.199997" d="M756.634 480.369C760.95 477.879 765.978 477.389 769.526 477.741C770.377 477.827 771.273 478.003 772.215 478.145C774.339 478.465 779.582 480.452 782.07 481.889L949.557 578.593C953.526 580.884 959.513 587.303 960.23 591.407C960.847 594.935 960.302 598.293 957.515 601.249C956.47 602.359 953.627 604.42 952.202 605.244L782.355 703.307C779.661 704.865 773.906 706.968 771.689 707.259C770.995 707.351 770.333 707.492 769.693 707.564C766.125 707.997 760.995 707.511 756.633 704.989L586.735 606.889C582.769 604.599 575.845 598.116 575.845 593.952C574.63 590.728 575.69 587.357 578.279 584.455C579.387 583.213 582.589 580.855 584.154 579.949L756.634 480.369Z" fill="#BFBFBF"/>
</g>
<g opacity="0.199997">
<path opacity="0.199997" d="M757.027 481.051C761.242 478.619 766.253 478.146 769.825 478.573C770.671 478.673 771.555 478.878 772.478 479.029C774.405 479.343 779.941 481.567 782.203 482.875L948.297 578.775C951.905 580.857 959.261 587.363 959.261 591.151C960.721 594.418 959.633 597.894 956.791 600.841C955.831 601.838 952.766 604.007 951.47 604.757L782.546 702.286C780.095 703.705 774.011 706.077 771.999 706.371C771.318 706.471 770.665 706.637 770.023 706.721C766.43 707.242 761.297 706.774 757.026 704.307L588.039 606.733C584.434 604.651 576.814 597.993 576.814 594.207C575.357 591.071 576.373 587.731 579.027 584.83C580.05 583.715 583.519 581.226 584.942 580.403L757.027 481.051Z" fill="#B3B3B3"/>
</g>
<g opacity="0.199997">
<path opacity="0.199997" d="M757.422 481.734C761.534 479.36 766.529 478.904 770.122 479.403C770.969 479.52 771.836 479.754 772.74 479.914C774.471 480.219 780.298 482.684 782.335 483.86L947.037 578.956C950.283 580.831 958.29 587.487 958.29 590.896C959.994 594.06 958.965 597.498 956.069 600.434C955.194 601.322 951.905 603.596 950.738 604.27L782.734 701.268C780.529 702.544 774.118 705.192 772.311 705.483C771.638 705.591 770.994 705.782 770.355 705.88C766.734 706.487 761.598 706.039 757.419 703.624L589.344 606.576C586.099 604.703 577.784 597.868 577.784 594.462C576.083 591.415 577.053 588.107 579.777 585.207C580.709 584.215 584.45 581.598 585.73 580.858L757.422 481.734Z" fill="#A6A6A6"/>
</g>
<g opacity="0.199997">
<path opacity="0.199997" d="M757.815 482.415C761.826 480.102 766.804 479.661 770.419 480.233C771.264 480.366 772.116 480.629 773.004 480.798C774.539 481.089 780.656 483.801 782.466 484.846L945.776 579.138C948.662 580.803 957.32 587.61 957.32 590.641C959.266 593.703 958.298 597.101 955.346 600.026C954.559 600.806 951.043 603.185 950.006 603.783L782.924 700.25C780.963 701.383 774.224 704.314 772.622 704.594C771.958 704.71 771.324 704.925 770.686 705.038C767.039 705.731 761.899 705.303 757.814 702.943L590.648 606.422C587.764 604.755 578.754 597.745 578.754 594.717C576.81 591.761 577.732 588.485 580.524 585.583C581.364 584.711 585.38 581.97 586.518 581.313L757.815 482.415Z" fill="#999999"/>
</g>
<g opacity="0.199997">
<path opacity="0.199997" d="M758.208 483.098C762.116 480.843 767.079 480.416 770.718 481.064C771.559 481.214 772.396 481.504 773.267 481.682C774.607 481.955 781.015 484.916 782.599 485.831L944.515 579.319C947.04 580.776 956.351 587.734 956.351 590.384C958.539 593.347 957.634 596.7 954.624 599.619C953.927 600.292 950.18 602.772 949.274 603.296L783.114 699.232C781.399 700.223 774.331 703.442 772.932 703.706C772.278 703.83 771.655 704.068 771.016 704.195C767.346 704.976 762.2 704.568 758.208 702.262L591.954 606.266C589.43 604.808 579.724 597.623 579.724 594.971C577.536 592.104 578.411 588.862 581.274 585.959C582.016 585.204 586.311 582.343 587.307 581.767L758.208 483.098Z" fill="#8C8C8C"/>
</g>
<g opacity="0.199997">
<path opacity="0.199997" d="M758.603 483.78C762.408 481.584 767.353 481.173 771.016 481.895C771.855 482.06 772.676 482.38 773.529 482.567C774.676 482.817 781.373 486.033 782.731 486.817L943.255 579.5C945.419 580.751 955.381 587.857 955.381 590.129C957.812 592.988 956.968 596.3 953.901 599.211C953.297 599.784 949.32 602.361 948.541 602.809L783.301 698.213C781.832 699.063 774.439 702.573 773.243 702.817C772.597 702.951 771.984 703.212 771.349 703.355C767.649 704.221 762.501 703.832 758.601 701.58L593.259 606.109C591.095 604.861 580.693 597.499 580.693 595.227C578.263 592.448 579.087 589.243 582.021 586.335C582.665 585.697 587.241 582.713 588.095 582.221L758.603 483.78Z" fill="#808080"/>
</g>
<g opacity="0.199997">
<path opacity="0.199997" d="M758.996 484.462C762.699 482.325 767.631 481.929 771.313 482.725C772.151 482.906 772.955 483.254 773.793 483.45C774.745 483.673 781.732 487.149 782.863 487.802L941.995 579.682C943.799 580.722 954.412 587.981 954.412 589.874C957.085 592.63 956.304 595.896 953.177 598.804C952.671 599.274 948.459 601.949 947.809 602.324L783.492 697.194C782.267 697.902 774.547 701.71 773.555 701.93C772.916 702.072 772.315 702.357 771.68 702.512C767.955 703.466 762.801 703.097 758.995 700.897L594.563 605.953C592.76 604.913 581.663 597.376 581.663 595.482C578.989 592.792 579.764 589.624 582.771 586.712C583.313 586.185 588.172 583.086 588.884 582.676L758.996 484.462Z" fill="#737373"/>
</g>
<g opacity="0.199997">
<path opacity="0.199997" d="M759.391 485.144C762.991 483.065 767.908 482.684 771.611 483.556C772.447 483.753 773.233 484.128 774.057 484.335C774.815 484.524 782.089 488.265 782.995 488.788L940.735 579.864C942.177 580.696 953.441 588.104 953.441 589.619C956.36 592.273 955.643 595.496 952.455 598.396C952.044 598.768 947.596 601.536 947.079 601.836L783.681 696.176C782.7 696.743 774.657 700.855 773.865 701.041C773.236 701.192 772.645 701.5 772.011 701.669C768.259 702.711 763.104 702.361 759.389 700.216L595.868 605.797C594.425 604.965 582.633 597.252 582.633 595.737C579.716 593.136 580.439 590.005 583.519 587.088C583.957 586.671 589.103 583.459 589.671 583.131L759.391 485.144Z" fill="#666666"/>
</g>
<g opacity="0.199997">
<path opacity="0.199997" d="M759.784 485.826C763.282 483.806 768.184 483.437 771.909 484.386C772.744 484.6 773.511 485.004 774.32 485.22C774.887 485.37 782.448 489.382 783.128 489.774L939.473 580.045C940.556 580.669 952.472 588.228 952.472 589.364C955.633 591.917 954.98 595.092 951.732 597.988C951.422 598.265 946.736 601.125 946.346 601.349L783.87 695.158C783.136 695.582 774.785 700.11 774.177 700.154C773.591 700.419 772.976 700.644 772.341 700.828C768.564 701.956 763.405 701.625 759.784 699.534L597.173 605.641C596.09 605.017 583.602 597.128 583.602 595.993C580.442 593.48 581.113 590.389 584.266 587.463C584.6 587.154 590.033 583.83 590.46 583.584L759.784 485.826Z" fill="#595959"/>
</g>
<g opacity="0.199997">
<path opacity="0.199997" d="M760.177 486.508C763.573 484.548 768.461 484.184 772.206 485.218C773.038 485.444 773.841 485.738 774.584 486.103C774.972 486.14 782.808 490.498 783.26 490.759L938.212 580.227C938.933 580.642 951.502 588.35 951.502 589.108C954.906 591.559 954.317 594.683 951.008 597.579C950.8 597.762 945.873 600.714 945.614 600.863L784.06 694.138C783.57 694.422 774.893 699.236 774.486 699.264C773.916 699.548 773.306 699.787 772.672 699.986C768.87 701.2 763.705 700.89 760.177 698.851L598.477 605.486C597.756 605.068 584.573 597.006 584.573 596.247C581.169 593.824 581.782 590.771 585.016 587.839C585.24 587.635 590.964 584.203 591.248 584.038L760.177 486.508Z" fill="#4D4D4D"/>
</g>
<g opacity="0.199997">
<path opacity="0.199997" d="M760.572 487.19C763.865 485.289 768.737 484.941 772.504 486.049C773.336 486.29 774.126 486.603 774.846 486.989C775.041 487.006 783.165 491.614 783.392 491.745L936.952 580.407C937.313 580.615 950.533 588.474 950.533 588.853C954.18 591.201 953.654 594.273 950.285 597.171C950.18 597.262 945.013 600.301 944.882 600.377L784.25 693.119C784.004 693.262 775.001 698.362 774.798 698.377C774.24 698.677 773.636 698.933 773.004 699.145C769.174 700.445 764.008 700.154 760.57 698.17L599.782 605.329C599.421 605.121 585.542 596.882 585.542 596.502C581.896 594.167 581.974 590.505 585.764 588.215C585.857 588.095 591.894 584.574 592.036 584.493L760.572 487.19Z" fill="#404040"/>
</g>
<g opacity="0.199997">
<path opacity="0.199997" d="M586.512 588.591C582.623 590.839 582.623 594.511 586.512 596.758L760.964 697.489C764.855 699.734 771.22 699.734 775.11 697.489L949.563 596.765C953.454 594.518 953.454 590.843 949.563 588.598L775.11 487.873C771.22 485.626 764.855 485.626 760.964 487.873L586.512 588.591Z" fill="#333333"/>
</g>
</g>
<g opacity="0.199997">
<g opacity="0.199997">
<path opacity="0.199997" d="M448.867 553.844C445.134 553.844 439.59 553.213 434.384 550.208L287.078 465.161C281.018 461.66 277.4 455.814 277.4 449.521C277.402 443.229 281.022 437.384 287.078 433.885L379.826 380.337C385.032 377.329 390.575 376.7 394.308 376.7C398.042 376.7 403.587 377.33 408.792 380.337L556.098 465.385C562.156 468.882 565.774 474.729 565.774 481.021C565.774 487.314 562.156 493.161 556.098 496.66L463.351 550.206C458.144 553.213 452.599 553.844 448.867 553.844Z" fill="white"/>
</g>
<g opacity="0.199997">
<path opacity="0.199997" d="M380.219 381.018C385.33 378.066 390.879 377.452 394.653 377.537C395.587 377.556 396.626 377.616 397.731 377.745C400.899 378.044 405.342 379.254 409.003 381.368L555.705 466.068C560.601 468.894 563.705 473.277 564.425 478.054C564.657 479.12 564.626 480.297 564.626 481.404C564.626 487.302 560.426 493.25 554.746 496.532L463.305 549.324C460.903 550.712 458.075 551.76 455.759 552.262C453.279 552.833 450.957 553.022 449.065 553.041C445.321 553.081 439.85 552.454 434.778 549.526L287.471 464.478C282.841 461.804 279.833 457.737 278.943 453.282C278.586 451.969 278.593 450.497 278.593 449.116C278.594 443.216 282.838 437.244 288.515 433.965L380.219 381.018Z" fill="#F2F2F2"/>
</g>
<g opacity="0.199997">
<path opacity="0.199997" d="M380.613 381.701C385.631 378.802 391.183 378.213 394.997 378.374C395.935 378.414 396.963 378.494 398.049 378.645C401.005 378.923 405.797 380.425 409.213 382.398L555.311 466.75C560.18 469.561 563.077 473.935 563.449 478.567C563.667 479.562 563.479 480.753 563.479 481.785C563.479 487.29 558.695 493.341 553.393 496.402L463.259 548.442C461.017 549.735 458.007 550.929 455.845 551.397C453.436 551.987 451.151 552.201 449.263 552.237C445.508 552.317 440.109 551.694 435.172 548.843L287.865 463.797C283.243 461.126 280.436 457.047 279.907 452.717C279.572 451.491 279.784 449.999 279.784 448.709C279.785 443.202 284.653 437.105 289.953 434.045L380.613 381.701Z" fill="#E6E6E6"/>
</g>
<g opacity="0.199997">
<path opacity="0.199997" d="M381.007 382.383C385.929 379.539 391.487 378.968 395.341 379.212C396.281 379.271 397.3 379.371 398.367 379.546C401.112 379.804 406.252 381.598 409.424 383.43L554.917 467.431C559.76 470.228 562.451 474.594 562.475 479.08C562.675 480.003 562.332 481.207 562.332 482.166C562.332 487.278 556.964 493.431 552.042 496.274L463.213 547.559C461.132 548.76 457.939 550.098 455.932 550.532C453.591 551.139 451.345 551.378 449.46 551.434C445.695 551.554 440.369 550.935 435.565 548.163L288.259 463.115C283.645 460.45 281.039 456.358 280.868 452.151C280.559 451.012 280.976 449.5 280.976 448.302C280.977 443.188 286.471 436.966 291.392 434.123L381.007 382.383Z" fill="#D9D9D9"/>
</g>
<g opacity="0.199997">
<path opacity="0.199997" d="M381.4 383.064C386.228 380.275 391.79 379.724 395.686 380.05C396.626 380.127 397.638 380.248 398.684 380.446C401.218 380.684 406.706 382.768 409.634 384.459L554.523 468.114C559.34 470.895 561.823 475.251 561.5 479.592C561.684 480.444 561.183 481.662 561.183 482.547C561.183 487.266 555.234 493.52 550.69 496.144L463.168 546.675C461.246 547.786 457.871 549.266 456.018 549.67C453.746 550.292 451.54 550.556 449.658 550.63C445.882 550.788 440.628 550.175 435.959 547.48L288.652 462.432C284.047 459.772 281.642 455.668 281.831 451.586C281.544 450.535 282.167 449.002 282.167 447.895C282.168 443.175 288.287 436.826 292.828 434.203L381.4 383.064Z" fill="#CCCCCC"/>
</g>
<g opacity="0.199997">
<path opacity="0.199997" d="M381.794 383.746C386.528 381.013 392.093 380.477 396.032 380.886C396.973 380.985 397.974 381.127 399.001 381.346C401.324 381.565 407.16 383.941 409.845 385.49L554.129 468.795C558.92 471.561 561.196 475.91 560.525 480.106C560.694 480.886 560.036 482.117 560.036 482.929C560.036 487.254 553.502 493.61 549.338 496.017L463.122 545.793C461.36 546.81 457.802 548.435 456.104 548.805C453.901 549.445 451.734 549.734 449.856 549.829C446.069 550.026 440.888 549.415 436.353 546.798L289.046 461.75C284.45 459.095 282.245 454.979 282.793 451.021C282.53 450.057 283.358 448.502 283.358 447.489C283.358 443.162 290.102 436.687 294.266 434.282L381.794 383.746Z" fill="#BFBFBF"/>
</g>
<g opacity="0.199997">
<path opacity="0.199997" d="M382.188 384.428C386.827 381.748 392.396 381.231 396.376 381.724C397.319 381.842 398.312 382.004 399.319 382.246C401.431 382.444 407.613 385.112 410.055 386.52L553.736 469.478C558.5 472.228 560.569 476.567 559.549 480.619C559.704 481.328 558.888 482.572 558.888 483.31C558.888 487.242 551.772 493.7 547.985 495.887L463.076 544.91C461.475 545.835 457.733 547.604 456.189 547.94C454.056 548.599 451.929 548.911 450.053 549.024C446.256 549.262 441.147 548.656 436.747 546.116L289.44 461.068C284.852 458.419 282.848 454.29 283.755 450.455C283.516 449.579 284.549 448.004 284.549 447.082C284.549 443.15 291.919 436.547 295.704 434.362L382.188 384.428Z" fill="#B3B3B3"/>
</g>
<g opacity="0.199997">
<path opacity="0.199997" d="M382.582 385.111C387.126 382.485 392.698 381.984 396.721 382.561C397.666 382.697 398.649 382.883 399.637 383.145C401.537 383.325 408.069 386.283 410.265 387.552L553.342 470.159C558.079 472.895 559.942 477.225 558.574 481.131C558.713 481.771 557.741 483.028 557.741 483.692C557.741 487.231 550.041 493.789 546.634 495.759L463.03 544.028C461.589 544.86 457.666 546.773 456.277 547.076C454.211 547.751 452.123 548.089 450.251 548.221C446.443 548.499 441.407 547.897 437.139 545.433L289.834 460.387C285.254 457.743 283.45 453.601 284.718 449.888C284.502 449.101 285.741 447.505 285.741 446.676C285.742 443.136 293.735 436.408 297.142 434.441L382.582 385.111Z" fill="#A6A6A6"/>
</g>
<g opacity="0.199997">
<path opacity="0.199997" d="M382.975 385.792C387.425 383.223 393.003 382.736 397.065 383.399C398.011 383.554 398.986 383.76 399.953 384.046C401.642 384.206 408.523 387.455 410.475 388.582L552.947 470.842C557.659 473.562 559.315 477.883 557.599 481.644C557.723 482.212 556.593 483.483 556.593 484.072C556.593 487.219 548.31 493.88 545.281 495.63L462.985 543.143C461.703 543.883 457.598 545.943 456.362 546.211C454.367 546.903 452.318 547.268 450.449 547.418C446.63 547.735 441.667 547.138 437.534 544.752L290.227 459.704C285.658 457.066 284.054 452.911 285.679 449.323C285.489 448.623 286.933 447.007 286.933 446.27C286.933 443.123 295.551 436.268 298.579 434.519L382.975 385.792Z" fill="#999999"/>
</g>
<g opacity="0.199997">
<path opacity="0.199997" d="M383.369 386.474C387.724 383.959 393.306 383.487 397.409 384.237C398.357 384.41 399.323 384.638 400.271 384.946C401.749 385.086 408.977 388.627 410.685 389.613L552.555 471.523C557.24 474.229 558.688 478.542 556.624 482.157C556.732 482.654 555.445 483.938 555.445 484.454C555.445 487.207 546.58 493.97 543.929 495.501L462.938 542.261C461.817 542.907 457.529 545.113 456.449 545.346C454.523 546.058 452.512 546.446 450.646 546.614C446.816 546.971 441.925 546.378 437.928 544.07L290.621 459.023C286.06 456.389 284.656 452.223 286.643 448.758C286.475 448.145 288.124 446.507 288.124 445.863C288.124 443.11 297.368 436.13 300.017 434.599L383.369 386.474Z" fill="#8C8C8C"/>
</g>
<g opacity="0.199997">
<path opacity="0.199997" d="M383.763 387.156C388.023 384.696 393.61 384.239 397.754 385.074C398.704 385.266 399.66 385.515 400.588 385.847C401.855 385.966 409.431 389.798 410.896 390.644L552.16 472.206C556.819 474.895 558.062 479.199 555.648 482.67C555.74 483.096 554.298 484.394 554.298 484.835C554.298 487.195 544.848 494.06 542.578 495.372L462.894 541.378C461.932 541.932 457.46 544.282 456.535 544.482C454.678 545.21 452.707 545.626 450.846 545.811C447.003 546.208 442.186 545.619 438.32 543.388L291.015 458.34C286.462 455.711 285.259 451.534 287.604 448.192C287.46 447.667 289.315 446.01 289.315 445.456C289.316 443.096 299.183 435.99 301.455 434.679L383.763 387.156Z" fill="#808080"/>
</g>
<g opacity="0.199997">
<path opacity="0.199997" d="M384.157 387.839C388.322 385.432 393.913 384.989 398.098 385.912C399.05 386.121 399.997 386.393 400.906 386.747C401.961 386.847 409.886 390.971 411.106 391.675L551.766 472.887C556.4 475.561 557.434 479.857 554.673 483.183C554.75 483.537 553.15 484.848 553.15 485.217C553.15 487.183 543.118 494.149 541.225 495.243L462.848 540.495C462.046 540.957 457.393 543.451 456.621 543.617C454.833 544.364 452.901 544.803 451.044 545.008C447.19 545.444 442.445 544.86 438.714 542.705L291.409 457.659C286.865 455.035 285.862 450.844 288.566 447.627C288.448 447.189 290.506 445.511 290.506 445.049C290.508 443.084 301 435.851 302.893 434.757L384.157 387.839Z" fill="#737373"/>
</g>
<g opacity="0.199997">
<path opacity="0.199997" d="M384.551 388.52C388.621 386.169 394.217 385.737 398.443 386.748C399.396 386.976 400.335 387.271 401.223 387.647C402.068 387.727 410.34 392.141 411.316 392.705L551.372 473.569C555.979 476.228 556.807 480.516 553.697 483.695C553.76 483.979 552.001 485.303 552.001 485.599C552.001 487.171 541.388 494.24 539.873 495.115L462.801 539.612C462.161 539.981 457.324 542.62 456.707 542.752C454.988 543.516 453.095 543.98 451.241 544.205C447.377 544.681 442.704 544.099 439.108 542.023L291.803 456.976C287.267 454.357 286.465 450.155 289.528 447.061C289.433 446.711 291.697 445.012 291.697 444.643C291.697 443.069 302.816 435.712 304.331 434.837L384.551 388.52Z" fill="#666666"/>
</g>
<g opacity="0.199997">
<path opacity="0.199997" d="M384.945 389.202C388.919 386.906 394.522 386.487 398.787 387.587C399.743 387.833 400.671 388.149 401.541 388.547C402.174 388.607 410.794 393.313 411.527 393.735L550.979 474.251C555.559 476.895 556.179 481.174 552.723 484.207C552.77 484.421 550.854 485.758 550.854 485.979C550.854 487.159 539.657 494.33 538.521 494.986L462.755 538.73C462.275 539.007 457.255 541.787 456.793 541.89C455.143 542.67 453.29 543.159 451.439 543.402C447.565 543.917 442.963 543.341 439.502 541.341L292.197 456.295C287.669 453.681 287.067 449.466 290.491 446.495C290.419 446.233 292.889 444.513 292.889 444.237C292.889 443.057 304.633 435.573 305.769 434.917L384.945 389.202Z" fill="#595959"/>
</g>
<g opacity="0.199997">
<path opacity="0.199997" d="M385.338 389.884C389.219 387.643 394.828 387.229 399.132 388.424C400.09 388.687 401.008 389.025 401.858 389.448C402.28 389.488 411.248 394.485 411.736 394.767L550.586 474.933C555.139 477.563 555.552 481.832 551.748 484.72C551.779 484.863 549.707 486.213 549.707 486.36C549.707 487.147 537.926 494.419 537.17 494.856L462.71 537.847C462.39 538.031 457.187 540.957 456.879 541.024C455.298 541.821 453.484 542.336 451.636 542.599C447.751 543.153 443.223 542.58 439.895 540.66L292.59 455.612C288.071 453.004 287.671 448.776 291.452 445.929C291.406 445.755 294.08 444.015 294.08 443.829C294.08 443.044 306.448 435.433 307.206 434.995L385.338 389.884Z" fill="#4D4D4D"/>
</g>
<g opacity="0.199997">
<path opacity="0.199997" d="M385.732 390.566C389.518 388.378 395.132 387.981 399.477 389.261C400.436 389.542 401.346 389.904 402.176 390.348C402.386 390.368 411.704 395.656 411.948 395.797L550.192 475.614C554.718 478.229 554.926 482.489 550.773 485.233C550.788 485.304 548.56 486.669 548.56 486.742C548.56 487.136 536.196 494.509 535.817 494.728L462.664 536.964C462.504 537.056 457.12 540.126 456.965 540.16C455.454 540.976 453.678 541.514 451.834 541.796C447.938 542.389 443.482 541.82 440.289 539.978L292.984 454.93C288.474 452.326 288.273 448.088 292.416 445.365C292.392 445.277 295.272 443.516 295.272 443.424C295.272 443.03 308.265 435.293 308.644 435.074L385.732 390.566Z" fill="#404040"/>
</g>
<g opacity="0.199997">
<path opacity="0.199997" d="M402.492 391.248C397.991 388.649 390.625 388.649 386.125 391.248L293.377 444.799C288.876 447.397 288.876 451.649 293.377 454.248L440.683 539.296C445.184 541.893 452.549 541.893 457.051 539.296L549.797 485.747C554.299 483.148 554.299 478.896 549.797 476.297L402.492 391.248Z" fill="#333333"/>
</g>
</g>
<path d="M832.544 571.582L940.312 509.373L888.075 476.534L1050.79 382.591L1051.74 384.227L891.738 476.603L943.975 509.442L833.488 573.219L832.544 571.582Z" fill="white"/>
<path d="M988.343 304.763L860.395 378.632C857.541 380.28 857.541 382.975 860.395 384.621L988.343 458.499C988.709 458.713 989.108 458.896 989.531 459.055L1071.42 506.337C1074.27 507.984 1078.94 507.984 1081.79 506.337L1209.74 432.463C1212.59 430.817 1212.59 428.12 1209.74 426.473L1081.79 352.599C1081.43 352.387 1081.03 352.205 1080.61 352.048L998.717 304.763C997.291 303.939 995.409 303.527 993.529 303.527C991.649 303.527 989.768 303.939 988.343 304.763" fill="url(#paint0_linear_2_653)"/>
<path d="M988.777 270.065L1028.79 293.169L1068.81 270.065L1028.79 246.963L988.777 270.065Z" fill="url(#paint1_linear_2_653)"/>
<path d="M988.777 223.861L1028.79 246.963L1068.81 223.861L1028.79 200.759L988.777 223.861ZM993.397 223.861L1028.79 203.427L1064.19 223.861L1028.79 244.297L993.397 223.861Z" fill="url(#paint2_linear_2_653)"/>
<path d="M988.777 200.715L1028.79 223.817L1068.81 200.715L1028.79 177.613L988.777 200.715ZM993.397 200.715L1028.79 180.279L1064.19 200.715L1028.79 221.149L993.397 200.715Z" fill="url(#paint3_linear_2_653)"/>
<path d="M988.777 177.568L1028.79 200.672L1068.81 177.568L1028.79 154.467L988.777 177.568ZM993.397 177.568L1028.79 157.132L1064.19 177.568L1028.79 198.004L993.397 177.568Z" fill="url(#paint4_linear_2_653)"/>
<path d="M1069.49 362.911L1109.5 386.013L1149.52 362.912L1109.5 339.808L1069.49 362.911ZM1074.11 362.911L1109.51 342.475L1144.9 362.911L1109.5 383.347L1074.11 362.911Z" fill="url(#paint5_linear_2_653)"/>
<path d="M1069.49 339.763L1109.5 362.868L1149.52 339.764L1109.5 316.661L1069.49 339.763ZM1074.11 339.764L1109.51 319.329L1144.9 339.764L1109.5 360.2L1074.11 339.764Z" fill="url(#paint6_linear_2_653)"/>
<path d="M1069.49 316.619L1109.5 339.721L1149.52 316.62L1109.5 293.516L1069.49 316.619ZM1074.11 316.619L1109.51 296.183L1144.9 316.619L1109.5 337.055L1074.11 316.619Z" fill="url(#paint7_linear_2_653)"/>
<path d="M988.777 408.683L1028.79 431.784V293.169L988.777 270.065V408.683Z" fill="url(#paint8_linear_2_653)"/>
<path d="M1028.79 293.169V431.784L1068.81 408.683V270.065L1028.79 293.169Z" fill="url(#paint9_linear_2_653)"/>
<path d="M908.745 270.071L948.757 293.173L988.773 270.072L948.757 246.969L908.745 270.071Z" fill="url(#paint10_linear_2_653)"/>
<path d="M908.745 362.525L948.757 385.628V293.173L908.745 270.071V362.525Z" fill="url(#paint11_linear_2_653)"/>
<path d="M948.757 293.173V385.585L988.772 362.481L988.773 270.072L948.757 293.173Z" fill="url(#paint12_linear_2_653)"/>
<path d="M1068.83 408.7L1108.84 431.804L1148.86 408.7L1108.84 385.599L1068.83 408.7Z" fill="url(#paint13_linear_2_653)"/>
<path d="M1068.83 454.907L1108.84 478.009V431.804L1068.83 408.7V454.907Z" fill="url(#paint14_linear_2_653)"/>
<path d="M1108.84 431.804V478.239L1148.85 455.139L1148.86 408.7L1108.84 431.804Z" fill="url(#paint15_linear_2_653)"/>
<path d="M908.843 247.117L948.855 270.22L988.869 247.119L948.855 224.016L908.843 247.117ZM913.463 247.117L948.855 226.683L984.252 247.117L948.855 267.555L913.463 247.117Z" fill="url(#paint16_linear_2_653)"/>
<path d="M908.843 223.971L948.855 247.075L988.869 223.971L948.855 200.868L908.843 223.971ZM913.463 223.971L948.855 203.535L984.252 223.971L948.855 244.407L913.463 223.971Z" fill="url(#paint17_linear_2_653)"/>
<path d="M908.843 200.824L948.855 223.928L988.869 200.824L948.855 177.723L908.843 200.824ZM913.463 200.824L948.855 180.389L984.252 200.824L948.855 221.261L913.463 200.824Z" fill="url(#paint18_linear_2_653)"/>
<path d="M453.077 600.879L562.2 537.851L454.523 475.686L455.467 474.047L565.981 537.851L456.871 600.872L595.259 680.072V680.074L594.32 681.714L453.077 600.879Z" fill="white"/>
<path d="M430.762 711.881L540.364 648.601L594.904 680.091L758.108 585.889L759.052 587.527L594.904 682.273L540.364 650.785L431.706 713.519L430.762 711.881Z" fill="white"/>
<path d="M422.157 639.755L387.619 659.693C387.256 659.859 386.901 660.032 386.567 660.227L184.704 776.769C180.204 779.368 180.204 783.621 184.704 786.22L332.009 871.276C336.509 873.876 343.875 873.876 348.376 871.276L382.908 851.337C383.275 851.173 383.631 850.997 383.967 850.803L585.833 734.255C590.335 731.655 590.335 727.401 585.833 724.803L438.525 639.755C436.275 638.455 433.308 637.805 430.341 637.805C427.375 637.805 424.408 638.455 422.157 639.755" fill="url(#paint19_linear_2_653)"/>
<g opacity="0.699997">
<g opacity="0.699997">
<g opacity="0.699997">
<g opacity="0.699997">
<g opacity="0.699997">
<path opacity="0.699997" d="M244.305 631.464C244.305 631.464 289.665 759.772 333.764 659.604C377.863 559.435 361.263 629.011 410.093 639.476C433.723 644.904 456.381 629.301 462.692 661.041C407.704 693.345 243.991 787.845 243.991 787.845L244.305 631.464Z" fill="url(#paint20_linear_2_653)"/>
</g>
</g>
</g>
</g>
</g>
<g opacity="0.699997">
<g opacity="0.699997">
<path opacity="0.699997" d="M244.462 787.074L462.693 661.044L463.638 662.681L245.408 788.713L244.462 787.074Z" fill="white"/>
</g>
</g>
<g opacity="0.699997">
<path opacity="0.699997" d="M243.991 630.404H245.88V787.845H243.991V630.404Z" fill="white"/>
</g>
<g opacity="0.699997">
<path opacity="0.699997" d="M298.379 697.368H300.268V756.344H298.379V697.368Z" fill="white"/>
</g>
<g opacity="0.699997">
<path opacity="0.699997" d="M352.979 617.123H354.869V725.239H352.979V617.123Z" fill="white"/>
</g>
<g opacity="0.699997">
<path opacity="0.699997" d="M407.704 637.308H409.595V693.344H407.704V637.308Z" fill="white"/>
</g>
<g opacity="0.699997">
<g opacity="0.699997">
<path opacity="0.699997" d="M247.457 630.341C247.457 628.741 246.376 628.056 245.057 628.819C243.734 629.583 242.653 631.516 242.653 633.115C242.653 634.713 243.734 635.4 245.057 634.637C246.376 633.875 247.457 631.94 247.457 630.341Z" fill="white"/>
</g>
</g>
<g opacity="0.699997">
<g opacity="0.699997">
<path opacity="0.699997" d="M301.846 696.175C301.846 694.576 300.765 693.891 299.444 694.652C298.124 695.417 297.042 697.349 297.042 698.948C297.042 700.548 298.124 701.233 299.444 700.472C300.765 699.708 301.846 697.776 301.846 696.175Z" fill="white"/>
</g>
</g>
<g opacity="0.699997">
<g opacity="0.699997">
<path opacity="0.699997" d="M356.047 616.03C356.047 614.43 354.966 613.746 353.645 614.507C352.325 615.273 351.242 617.205 351.242 618.805C351.242 620.403 352.325 621.089 353.645 620.327C354.966 619.562 356.047 617.63 356.047 616.03Z" fill="white"/>
</g>
</g>
<g opacity="0.699997">
<g opacity="0.699997">
<path opacity="0.699997" d="M411.014 636.661C411.014 635.063 409.933 634.377 408.612 635.141C407.292 635.904 406.21 637.837 406.21 639.436C406.21 641.035 407.292 641.721 408.612 640.959C409.933 640.195 411.014 638.261 411.014 636.661Z" fill="white"/>
</g>
</g>
<g opacity="0.699997">
<g opacity="0.699997">
<path opacity="0.699997" d="M465.036 660.602C465.036 659.002 463.956 658.318 462.634 659.08C461.313 659.844 460.23 661.776 460.23 663.376C460.23 664.976 461.313 665.66 462.634 664.899C463.956 664.135 465.036 662.203 465.036 660.602Z" fill="white"/>
</g>
</g>
<g opacity="0.699997">
<g opacity="0.699997">
<path opacity="0.699997" d="M247.532 786.15C247.532 784.551 246.451 783.866 245.129 784.628C243.808 785.392 242.728 787.324 242.728 788.923C242.728 790.523 243.808 791.208 245.129 790.446C246.451 789.682 247.532 787.75 247.532 786.15Z" fill="white"/>
</g>
</g>
<g opacity="0.699997">
<g opacity="0.699997">
<g opacity="0.699997">
<g opacity="0.699997">
<g opacity="0.699997">
<path opacity="0.699997" d="M275.175 662.964C275.175 662.964 320.535 791.272 364.635 691.103C408.733 590.933 392.132 660.509 440.963 670.976C464.593 676.405 487.251 660.801 493.561 692.541C438.575 724.844 274.861 819.344 274.861 819.344L275.175 662.964Z" fill="url(#paint21_linear_2_653)"/>
</g>
</g>
</g>
</g>
</g>
<g opacity="0.699997">
<g opacity="0.699997">
<path opacity="0.699997" d="M275.333 818.572L493.562 692.542L494.507 694.18L276.277 820.21L275.333 818.572Z" fill="white"/>
</g>
</g>
<g opacity="0.699997">
<path opacity="0.699997" d="M274.861 661.901H276.751V819.344H274.861V661.901Z" fill="white"/>
</g>
<g opacity="0.699997">
<path opacity="0.699997" d="M329.249 728.868H331.139V787.841H329.249V728.868Z" fill="white"/>
</g>
<g opacity="0.699997">
<path opacity="0.699997" d="M383.849 648.624H385.74V756.739H383.849V648.624Z" fill="white"/>
</g>
<g opacity="0.699997">
<path opacity="0.699997" d="M438.575 668.808H440.465V724.843H438.575V668.808Z" fill="white"/>
</g>
<g opacity="0.699997">
<g opacity="0.699997">
<path opacity="0.699997" d="M278.327 661.839C278.327 660.24 277.245 659.556 275.925 660.319C274.603 661.081 273.523 663.015 273.523 664.615C273.523 666.212 274.603 666.9 275.925 666.136C277.245 665.373 278.327 663.439 278.327 661.839Z" fill="white"/>
</g>
</g>
<g opacity="0.699997">
<g opacity="0.699997">
<path opacity="0.699997" d="M332.716 727.674C332.716 726.073 331.635 725.389 330.313 726.152C328.992 726.916 327.912 728.849 327.912 730.448C327.912 732.048 328.992 732.733 330.313 731.97C331.635 731.206 332.716 729.273 332.716 727.674Z" fill="white"/>
</g>
</g>
<g opacity="0.699997">
<g opacity="0.699997">
<path opacity="0.699997" d="M386.917 647.529C386.917 645.93 385.836 645.243 384.515 646.007C383.195 646.77 382.112 648.703 382.112 650.302C382.112 651.902 383.195 652.587 384.515 651.825C385.836 651.062 386.917 649.129 386.917 647.529Z" fill="white"/>
</g>
</g>
<g opacity="0.699997">
<g opacity="0.699997">
<path opacity="0.699997" d="M441.884 668.161C441.884 666.563 440.803 665.876 439.481 666.639C438.16 667.403 437.08 669.336 437.08 670.935C437.08 672.535 438.16 673.22 439.481 672.457C440.803 671.693 441.884 669.761 441.884 668.161Z" fill="white"/>
</g>
</g>
<g opacity="0.699997">
<g opacity="0.699997">
<path opacity="0.699997" d="M495.906 692.102C495.906 690.502 494.826 689.816 493.504 690.579C492.183 691.342 491.102 693.276 491.102 694.875C491.102 696.474 492.183 697.16 493.504 696.398C494.826 695.634 495.906 693.7 495.906 692.102Z" fill="white"/>
</g>
</g>
<g opacity="0.699997">
<g opacity="0.699997">
<path opacity="0.699997" d="M278.402 817.65C278.402 816.05 277.319 815.364 275.998 816.127C274.678 816.891 273.598 818.823 273.598 820.423C273.598 822.022 274.678 822.707 275.998 821.946C277.319 821.18 278.402 819.248 278.402 817.65Z" fill="white"/>
</g>
</g>
<g opacity="0.699997">
<g opacity="0.699997">
<g opacity="0.699997">
<g opacity="0.699997">
<g opacity="0.699997">
<path opacity="0.699997" d="M307.304 694.463C307.304 694.463 352.663 822.772 396.763 722.603C440.861 622.435 424.26 692.008 473.091 702.476C496.723 707.903 519.38 692.3 525.691 724.041C470.703 756.344 306.989 850.843 306.989 850.843L307.304 694.463Z" fill="url(#paint22_linear_2_653)"/>
</g>
</g>
</g>
</g>
</g>
<g opacity="0.699997">
<g opacity="0.699997">
<path opacity="0.699997" d="M307.461 850.072L525.69 724.042L526.634 725.678L308.406 851.71L307.461 850.072Z" fill="white"/>
</g>
</g>
<g opacity="0.699997">
<path opacity="0.699997" d="M306.989 693.4H308.879V850.843H306.989V693.4Z" fill="white"/>
</g>
<g opacity="0.699997">
<path opacity="0.699997" d="M361.377 760.367H363.267V819.341H361.377V760.367Z" fill="white"/>
</g>
<g opacity="0.699997">
<path opacity="0.699997" d="M415.977 680.121H417.868V788.237H415.977V680.121Z" fill="white"/>
</g>
<g opacity="0.699997">
<path opacity="0.699997" d="M470.703 700.305H472.593V756.343H470.703V700.305Z" fill="white"/>
</g>
<g opacity="0.699997">
<g opacity="0.699997">
<path opacity="0.699997" d="M310.456 693.339C310.456 691.74 309.374 691.055 308.053 691.816C306.732 692.581 305.65 694.513 305.65 696.112C305.65 697.712 306.732 698.397 308.053 697.635C309.374 696.872 310.456 694.939 310.456 693.339Z" fill="white"/>
</g>
</g>
<g opacity="0.699997">
<g opacity="0.699997">
<path opacity="0.699997" d="M364.844 759.173C364.844 757.575 363.763 756.888 362.443 757.651C361.122 758.415 360.04 760.348 360.04 761.947C360.04 763.545 361.122 764.232 362.443 763.469C363.763 762.707 364.844 760.772 364.844 759.173Z" fill="white"/>
</g>
</g>
<g opacity="0.699997">
<g opacity="0.699997">
<path opacity="0.699997" d="M419.046 679.029C419.046 677.43 417.964 676.743 416.643 677.506C415.323 678.27 414.24 680.203 414.24 681.802C414.24 683.402 415.323 684.087 416.643 683.325C417.964 682.561 419.046 680.627 419.046 679.029Z" fill="white"/>
</g>
</g>
<g opacity="0.699997">
<g opacity="0.699997">
<path opacity="0.699997" d="M474.012 699.66C474.012 698.061 472.931 697.376 471.611 698.139C470.29 698.903 469.208 700.835 469.208 702.435C469.208 704.033 470.29 704.719 471.611 703.957C472.931 703.192 474.012 701.26 474.012 699.66Z" fill="white"/>
</g>
</g>
<g opacity="0.699997">
<g opacity="0.699997">
<path opacity="0.699997" d="M528.034 723.6C528.034 722.002 526.953 721.315 525.631 722.079C524.311 722.842 523.23 724.775 523.23 726.374C523.23 727.974 524.311 728.659 525.631 727.896C526.953 727.134 528.034 725.2 528.034 723.6Z" fill="white"/>
</g>
</g>
<g opacity="0.699997">
<g opacity="0.699997">
<path opacity="0.699997" d="M310.53 849.148C310.53 847.55 309.449 846.864 308.127 847.627C306.806 848.39 305.726 850.322 305.726 851.92C305.726 853.52 306.806 854.206 308.127 853.443C309.449 852.68 310.53 850.747 310.53 849.148Z" fill="white"/>
</g>
</g>
<path d="M760.965 467.083L586.513 567.803C582.623 570.047 582.623 573.723 586.513 575.968L760.965 676.697C764.856 678.945 771.22 678.945 775.109 676.697L949.563 575.975C953.453 573.731 953.453 570.053 949.563 567.808L775.109 467.083C773.165 465.96 770.601 465.399 768.037 465.399C765.475 465.399 762.911 465.96 760.965 467.083" fill="url(#paint23_linear_2_653)"/>
<g opacity="0.699997">
<g opacity="0.699997">
<g opacity="0.699997">
<g opacity="0.699997">
<g opacity="0.699997">
<path opacity="0.699997" d="M655.141 511.408V574.411L764.257 637.412V574.408L655.141 511.408Z" fill="url(#paint24_linear_2_653)"/>
</g>
</g>
</g>
</g>
</g>
<g opacity="0.699997">
<g opacity="0.699997">
<g opacity="0.699997">
<g opacity="0.699997">
<g opacity="0.699997">
<path opacity="0.699997" d="M764.257 448.419L655.141 511.408L764.257 574.408L873.372 511.412L764.257 448.419Z" fill="url(#paint25_linear_2_653)"/>
</g>
</g>
</g>
</g>
</g>
<g opacity="0.699997">
<g opacity="0.699997">
<g opacity="0.699997">
<g opacity="0.699997">
<g opacity="0.699997">
<path opacity="0.699997" d="M873.372 511.412L873.363 574.411L764.257 637.412V574.408L873.372 511.412Z" fill="url(#paint26_linear_2_653)"/>
</g>
</g>
</g>
</g>
</g>
<g opacity="0.300003">
<g opacity="0.300003">
<path opacity="0.300003" d="M829.51 570.925L804.206 585.533V614.342L806.097 613.25V586.625L831.396 572.019L831.51 535.579L829.617 536.673L829.51 570.925ZM784.202 562.894L782.309 563.986L782.252 585.119L801.109 574.437V616.131L803 615.041V571.194L784.149 581.87L784.202 562.894ZM850.93 568.537L851.05 524.298L849.158 525.391L849.034 571.786L867.89 561.102V577.569L869.781 576.479V557.858L850.93 568.537Z" fill="white"/>
</g>
</g>
<g opacity="0.300003">
<g opacity="0.300003">
<path opacity="0.300003" d="M692.337 532.884L692.435 568.536L673.585 557.857V585.059L675.475 586.148V561.101L694.332 571.785L694.229 533.975L692.337 532.884ZM700.32 585.875L700.167 537.404L698.275 536.309L698.433 586.968L723.731 601.573L723.732 614.012L725.621 615.104V600.483L700.32 585.875Z" fill="white"/>
</g>
</g>
<g opacity="0.699997">
<g opacity="0.699997">
<g opacity="0.699997">
<g opacity="0.699997">
<g opacity="0.699997">
<path opacity="0.699997" d="M655.141 434.549V497.552L764.257 560.551V497.549L655.141 434.549Z" fill="url(#paint27_linear_2_653)"/>
</g>
</g>
</g>
</g>
</g>
<g opacity="0.699997">
<g opacity="0.699997">
<g opacity="0.699997">
<g opacity="0.699997">
<g opacity="0.699997">
<path opacity="0.699997" d="M764.257 371.56L655.141 434.549L764.257 497.549L873.372 434.552L764.257 371.56Z" fill="url(#paint28_linear_2_653)"/>
</g>
</g>
</g>
</g>
</g>
<g opacity="0.699997">
<g opacity="0.699997">
<g opacity="0.699997">
<g opacity="0.699997">
<g opacity="0.699997">
<path opacity="0.699997" d="M873.372 434.552L873.363 497.552L764.257 560.551V497.549L873.372 434.552Z" fill="url(#paint29_linear_2_653)"/>
</g>
</g>
</g>
</g>
</g>
<g opacity="0.300003">
<g opacity="0.300003">
<path opacity="0.300003" d="M829.51 494.066L804.206 508.675V537.484L806.097 536.392V509.767L831.396 495.16L831.51 458.72L829.617 459.812L829.51 494.066ZM784.202 486.035L782.309 487.127L782.252 508.26L801.109 497.576V539.272L803 538.18V494.334L784.149 505.011L784.202 486.035Z" fill="white"/>
</g>
</g>
<g opacity="0.300003">
<g opacity="0.300003">
<path opacity="0.300003" d="M692.337 456.024L692.435 491.677L673.585 480.999V508.2L675.475 509.291V484.241L694.332 494.925L694.229 457.116L692.337 456.024Z" fill="white"/>
</g>
</g>
<g opacity="0.699997">
<g opacity="0.699997">
<g opacity="0.699997">
<g opacity="0.699997">
<g opacity="0.699997">
<path opacity="0.699997" d="M655.141 359.579V422.583L764.257 485.583V422.58L655.141 359.579Z" fill="url(#paint30_linear_2_653)"/>
</g>
</g>
</g>
</g>
</g>
<g opacity="0.699997">
<g opacity="0.699997">
<g opacity="0.699997">
<g opacity="0.699997">
<g opacity="0.699997">
<path opacity="0.699997" d="M764.257 296.591L655.141 359.579L764.257 422.58L873.372 359.583L764.257 296.591Z" fill="url(#paint31_linear_2_653)"/>
</g>
</g>
</g>
</g>
</g>
<g opacity="0.699997">
<g opacity="0.699997">
<path opacity="0.699997" d="M764.258 391.336L709.262 359.58L764.258 327.835L819.255 359.584L764.258 391.336Z" fill="white"/>
</g>
</g>
<g opacity="0.699997">
<g opacity="0.699997">
<g opacity="0.699997">
<g opacity="0.699997">
<g opacity="0.699997">
<path opacity="0.699997" d="M764.257 389.603L712.263 359.58L764.257 329.568L816.251 359.583L764.257 389.603Z" fill="url(#paint32_linear_2_653)"/>
</g>
</g>
</g>
</g>
</g>
<g opacity="0.699997">
<g opacity="0.699997">
<g opacity="0.699997">
<g opacity="0.699997">
<g opacity="0.699997">
<path opacity="0.699997" d="M764.259 380.927L727.292 359.581L764.257 338.244L801.224 359.583L764.259 380.927Z" fill="url(#paint33_linear_2_653)"/>
</g>
</g>
</g>
</g>
</g>
<g opacity="0.699997">
<g opacity="0.699997">
<g opacity="0.699997">
<g opacity="0.699997">
<g opacity="0.699997">
<path opacity="0.699997" d="M873.372 359.583L873.363 422.583L764.257 485.583V422.58L873.372 359.583Z" fill="url(#paint34_linear_2_653)"/>
</g>
</g>
</g>
</g>
</g>
<g opacity="0.300003">
<g opacity="0.300003">
<path opacity="0.300003" d="M829.51 419.096L804.206 433.706V462.514L806.097 461.423V434.796L831.396 420.191L831.51 383.752L829.617 384.844L829.51 419.096ZM784.202 411.066L782.309 412.158L782.252 433.291L801.109 422.607V464.303L803 463.212V419.364L784.149 430.042L784.202 411.066ZM850.93 416.707L851.05 372.47L849.158 373.562L849.034 419.956L867.89 409.272V425.742L869.781 424.651V406.03L850.93 416.707Z" fill="white"/>
</g>
</g>
<g opacity="0.300003">
<g opacity="0.300003">
<path opacity="0.300003" d="M692.337 381.055L692.435 416.707L673.585 406.03V433.23L675.475 434.322V409.273L694.332 419.957L694.229 382.146L692.337 381.055ZM700.32 434.047L700.167 385.575L698.275 384.482L698.433 435.141L723.731 449.746L723.732 462.183L725.621 463.275V448.655L700.32 434.047Z" fill="white"/>
</g>
</g>
<path d="M359.989 409.456L468.862 472.717L479.201 466.769L370.309 403.5L359.989 409.456Z" fill="#DBF4F6"/>
<path d="M311.269 415.679L474.423 510.476L494.772 498.727L331.619 403.929L311.269 415.679Z" fill="url(#paint35_linear_2_653)"/>
<path d="M494.345 438.388L474.02 450.151L513.062 472.836L533.412 461.087L494.345 438.388Z" fill="#DBF4F6"/>
<path d="M386.125 372.457L293.377 426.009C288.877 428.608 288.877 432.86 293.377 435.459L440.683 520.505C445.184 523.105 452.549 523.105 457.051 520.505L549.797 466.957C554.299 464.359 554.299 460.105 549.797 457.508L402.492 372.457C400.241 371.159 397.275 370.509 394.308 370.509C391.343 370.509 388.376 371.159 386.125 372.457" fill="url(#paint36_linear_2_653)"/>
<defs>
<linearGradient id="paint0_linear_2_653" x1="1002.52" y1="305.094" x2="1066.97" y2="503.996" gradientUnits="userSpaceOnUse">
<stop stop-color="#4F4A5B"/>
<stop offset="0.818695" stop-color="#333333"/>
<stop offset="0.917603" stop-color="#333333"/>
<stop offset="1" stop-color="#333333"/>
</linearGradient>
<linearGradient id="paint1_linear_2_653" x1="1027.09" y1="252.22" x2="1033.09" y2="315.06" gradientUnits="userSpaceOnUse">
<stop stop-color="#75D1F9"/>
<stop offset="1" stop-color="#3E72D0"/>
</linearGradient>
<linearGradient id="paint2_linear_2_653" x1="1030.18" y1="205.591" x2="1027.41" y2="241.94" gradientUnits="userSpaceOnUse">
<stop stop-color="#75D1F9"/>
<stop offset="1" stop-color="#3E72D0"/>
</linearGradient>
<linearGradient id="paint3_linear_2_653" x1="1027.6" y1="182.376" x2="1030.68" y2="229.813" gradientUnits="userSpaceOnUse">
<stop stop-color="#75D1F9"/>
<stop offset="1" stop-color="#3E72D0"/>
</linearGradient>
<linearGradient id="paint4_linear_2_653" x1="1033.35" y1="160.902" x2="1021.64" y2="203.719" gradientUnits="userSpaceOnUse">
<stop stop-color="#75D1F9"/>
<stop offset="1" stop-color="#3E72D0"/>
</linearGradient>
<linearGradient id="paint5_linear_2_653" x1="1109.51" y1="339.551" x2="1109.51" y2="385.598" gradientUnits="userSpaceOnUse">
<stop stop-color="#EA6A79"/>
<stop offset="1" stop-color="#C044AA"/>
</linearGradient>
<linearGradient id="paint6_linear_2_653" x1="1109.51" y1="316.661" x2="1109.51" y2="361.267" gradientUnits="userSpaceOnUse">
<stop stop-color="#EA6A79"/>
<stop offset="1" stop-color="#C044AA"/>
</linearGradient>
<linearGradient id="paint7_linear_2_653" x1="1109.51" y1="294.039" x2="1109.51" y2="339.321" gradientUnits="userSpaceOnUse">
<stop stop-color="#EA6A79"/>
<stop offset="1" stop-color="#C044AA"/>
</linearGradient>
<linearGradient id="paint8_linear_2_653" x1="992.242" y1="281.716" x2="1033.82" y2="455.669" gradientUnits="userSpaceOnUse">
<stop stop-color="#75D1F9"/>
<stop offset="1" stop-color="#3E72D0"/>
</linearGradient>
<linearGradient id="paint9_linear_2_653" x1="1065.03" y1="224.173" x2="1041.01" y2="411.766" gradientUnits="userSpaceOnUse">
<stop stop-color="#75D1F9"/>
<stop offset="1" stop-color="#3E72D0"/>
</linearGradient>
<linearGradient id="paint10_linear_2_653" x1="950.393" y1="251.743" x2="937.918" y2="391.74" gradientUnits="userSpaceOnUse">
<stop stop-color="#81FFDE"/>
<stop offset="1" stop-color="#67D9BF"/>
</linearGradient>
<linearGradient id="paint11_linear_2_653" x1="933.044" y1="285.189" x2="921.955" y2="395.383" gradientUnits="userSpaceOnUse">
<stop stop-color="#81FFDE"/>
<stop offset="1" stop-color="#67D9BF"/>
</linearGradient>
<linearGradient id="paint12_linear_2_653" x1="1013.21" y1="250.4" x2="970.246" y2="325.249" gradientUnits="userSpaceOnUse">
<stop stop-color="#81FFDE"/>
<stop offset="1" stop-color="#67D9BF"/>
</linearGradient>
<linearGradient id="paint13_linear_2_653" x1="1112.43" y1="381.38" x2="1102.04" y2="460.384" gradientUnits="userSpaceOnUse">
<stop stop-color="#EA6A79"/>
<stop offset="1" stop-color="#C044AA"/>
</linearGradient>
<linearGradient id="paint14_linear_2_653" x1="1092.26" y1="414.59" x2="1081.86" y2="501.911" gradientUnits="userSpaceOnUse">
<stop stop-color="#EA6A79"/>
<stop offset="1" stop-color="#C044AA"/>
</linearGradient>
<linearGradient id="paint15_linear_2_653" x1="1127.49" y1="396.31" x2="1130.26" y2="492.643" gradientUnits="userSpaceOnUse">
<stop stop-color="#EA6A79"/>
<stop offset="1" stop-color="#C044AA"/>
</linearGradient>
<linearGradient id="paint16_linear_2_653" x1="949.172" y1="233.931" x2="947.94" y2="285.372" gradientUnits="userSpaceOnUse">
<stop stop-color="#81FFDE"/>
<stop offset="1" stop-color="#67D9BF"/>
</linearGradient>
<linearGradient id="paint17_linear_2_653" x1="948.969" y1="223.208" x2="942.192" y2="268.798" gradientUnits="userSpaceOnUse">
<stop stop-color="#81FFDE"/>
<stop offset="1" stop-color="#67D9BF"/>
</linearGradient>
<linearGradient id="paint18_linear_2_653" x1="950.044" y1="185.88" x2="945.732" y2="240.095" gradientUnits="userSpaceOnUse">
<stop stop-color="#81FFDE"/>
<stop offset="1" stop-color="#67D9BF"/>
</linearGradient>
<linearGradient id="paint19_linear_2_653" x1="385.269" y1="679.126" x2="385.269" y2="859.305" gradientUnits="userSpaceOnUse">
<stop stop-color="#4F4A5B"/>
<stop offset="0.818695" stop-color="#333333"/>
<stop offset="0.917603" stop-color="#333333"/>
<stop offset="1" stop-color="#333333"/>
</linearGradient>
<linearGradient id="paint20_linear_2_653" x1="334.51" y1="644.997" x2="360.969" y2="756.502" gradientUnits="userSpaceOnUse">
<stop stop-color="#EA6A79"/>
<stop offset="1" stop-color="#C044AA"/>
</linearGradient>
<linearGradient id="paint21_linear_2_653" x1="353.958" y1="646.355" x2="393.017" y2="787.474" gradientUnits="userSpaceOnUse">
<stop stop-color="#75D1F9"/>
<stop offset="1" stop-color="#3E72D0"/>
</linearGradient>
<linearGradient id="paint22_linear_2_653" x1="392.982" y1="680.88" x2="418.812" y2="798.69" gradientUnits="userSpaceOnUse">
<stop stop-color="#81FFDE"/>
<stop offset="1" stop-color="#67D9BF"/>
</linearGradient>
<linearGradient id="paint23_linear_2_653" x1="810.152" y1="475.482" x2="720.543" y2="680.613" gradientUnits="userSpaceOnUse">
<stop stop-color="#4F4A5B"/>
<stop offset="0.818695" stop-color="#333333"/>
<stop offset="0.917603" stop-color="#333333"/>
<stop offset="1" stop-color="#333333"/>
</linearGradient>
<linearGradient id="paint24_linear_2_653" x1="655.142" y1="574.409" x2="764.258" y2="574.409" gradientUnits="userSpaceOnUse">
<stop stop-color="#81FFDE"/>
<stop offset="1" stop-color="#67D9BF"/>
</linearGradient>
<linearGradient id="paint25_linear_2_653" x1="655.142" y1="511.413" x2="873.372" y2="511.413" gradientUnits="userSpaceOnUse">
<stop stop-color="#81FFDE"/>
<stop offset="1" stop-color="#67D9BF"/>
</linearGradient>
<linearGradient id="paint26_linear_2_653" x1="764.258" y1="574.411" x2="873.372" y2="574.411" gradientUnits="userSpaceOnUse">
<stop stop-color="#81FFDE"/>
<stop offset="1" stop-color="#67D9BF"/>
</linearGradient>
<linearGradient id="paint27_linear_2_653" x1="655.142" y1="497.549" x2="764.258" y2="497.549" gradientUnits="userSpaceOnUse">
<stop stop-color="#81FFDE"/>
<stop offset="1" stop-color="#67D9BF"/>
</linearGradient>
<linearGradient id="paint28_linear_2_653" x1="655.142" y1="434.555" x2="873.372" y2="434.555" gradientUnits="userSpaceOnUse">
<stop stop-color="#81FFDE"/>
<stop offset="1" stop-color="#67D9BF"/>
</linearGradient>
<linearGradient id="paint29_linear_2_653" x1="764.258" y1="497.551" x2="873.372" y2="497.551" gradientUnits="userSpaceOnUse">
<stop stop-color="#81FFDE"/>
<stop offset="1" stop-color="#67D9BF"/>
</linearGradient>
<linearGradient id="paint30_linear_2_653" x1="719.219" y1="377.993" x2="701.265" y2="462.094" gradientUnits="userSpaceOnUse">
<stop stop-color="#81FFDE"/>
<stop offset="1" stop-color="#67D9BF"/>
</linearGradient>
<linearGradient id="paint31_linear_2_653" x1="769.764" y1="306.632" x2="757.48" y2="424.75" gradientUnits="userSpaceOnUse">
<stop stop-color="#81FFDE"/>
<stop offset="1" stop-color="#67D9BF"/>
</linearGradient>
<linearGradient id="paint32_linear_2_653" x1="764.891" y1="382.367" x2="763.631" y2="337.007" gradientUnits="userSpaceOnUse">
<stop stop-color="#81FFDE"/>
<stop offset="1" stop-color="#67D9BF"/>
</linearGradient>
<linearGradient id="paint33_linear_2_653" x1="764.818" y1="351.548" x2="762.928" y2="378.638" gradientUnits="userSpaceOnUse">
<stop stop-color="#81FFDE"/>
<stop offset="1" stop-color="#67D9BF"/>
</linearGradient>
<linearGradient id="paint34_linear_2_653" x1="816.137" y1="375.044" x2="819.917" y2="442.135" gradientUnits="userSpaceOnUse">
<stop stop-color="#81FFDE"/>
<stop offset="1" stop-color="#67D9BF"/>
</linearGradient>
<linearGradient id="paint35_linear_2_653" x1="416.337" y1="411.647" x2="392.397" y2="493.547" gradientUnits="userSpaceOnUse">
<stop stop-color="#4F4A5B"/>
<stop offset="0.818695" stop-color="#333333"/>
<stop offset="0.917603" stop-color="#333333"/>
<stop offset="1" stop-color="#333333"/>
</linearGradient>
<linearGradient id="paint36_linear_2_653" x1="411.066" y1="366.516" x2="439.419" y2="581.998" gradientUnits="userSpaceOnUse">
<stop stop-color="#75D1F9"/>
<stop offset="1" stop-color="#3E72D0"/>
</linearGradient>
</defs>
</svg>
