<svg width="618" height="618" viewBox="0 0 618 618" fill="none" xmlns="http://www.w3.org/2000/svg">
<path d="M173.287 481.935H445.831C495.868 441.919 527.928 380.363 527.928 311.311C527.928 190.709 430.161 92.9427 309.558 92.9427C188.957 92.9427 91.1895 190.709 91.1895 311.311C91.1895 380.363 123.251 441.919 173.287 481.935Z" fill="#642994"/>
<path d="M68.3519 253.431C70.6034 249.359 75.7477 247.877 79.8195 250.129C83.8915 252.38 85.3722 257.525 83.1206 261.596C80.8695 265.668 75.7258 267.149 71.6534 264.897C67.5815 262.647 66.1009 257.501 68.3519 253.431ZM94.4446 253.825C94.4347 253.271 93.9769 252.831 93.4233 252.84L89.9066 252.905C89.2123 250.768 88.0477 248.781 86.4425 247.128L88.1362 244.064C88.4045 243.58 88.229 242.969 87.7441 242.7L81.8962 239.468C81.4118 239.199 80.8014 239.375 80.5331 239.86L78.8389 242.924C76.5847 242.444 74.2831 242.515 72.1039 243.063L70.2894 240.049C70.0034 239.576 69.3873 239.421 68.9129 239.708L63.1889 243.156C62.7138 243.441 62.5613 244.057 62.8467 244.532L64.6586 247.541C63.9149 248.368 63.2446 249.281 62.6837 250.296C62.1222 251.311 61.7055 252.364 61.4003 253.435L57.8894 253.499C57.3353 253.509 56.8946 253.967 56.9045 254.521L57.0285 261.201C57.0389 261.755 57.4962 262.196 58.0498 262.185L61.567 262.12C62.2607 264.257 63.4249 266.244 65.0305 267.899L63.3362 270.963C63.0681 271.447 63.2441 272.057 63.729 272.325L69.5763 275.559C70.0618 275.827 70.6717 275.651 70.9399 275.167L72.6342 272.103C74.8883 272.583 77.1899 272.512 79.3691 271.964L81.1842 274.976C81.4695 275.451 82.0862 275.604 82.5613 275.319L88.2853 271.871C88.7597 271.584 88.9129 270.969 88.6269 270.495L86.8143 267.485C87.5577 266.659 88.229 265.745 88.7905 264.731C89.3514 263.716 89.7675 262.663 90.0727 261.592L93.5837 261.528C94.1378 261.517 94.5785 261.06 94.5691 260.505L94.4446 253.825" fill="#642994"/>
<path d="M555.638 351.725C557.89 347.653 563.033 346.172 567.106 348.423C571.178 350.675 572.658 355.819 570.408 359.891C568.156 363.964 563.012 365.444 558.94 363.193C554.868 360.941 553.386 355.797 555.638 351.725ZM581.732 352.12C581.721 351.567 581.264 351.125 580.709 351.136L577.193 351.2C576.498 349.064 575.334 347.077 573.729 345.423L575.422 342.36C575.692 341.873 575.516 341.263 575.03 340.996L569.184 337.761C568.697 337.495 568.088 337.671 567.82 338.155L566.126 341.219C563.87 340.739 561.57 340.808 559.39 341.357L557.576 338.345C557.29 337.869 556.673 337.717 556.198 338.003L550.474 341.451C550 341.737 549.848 342.353 550.133 342.828L551.945 345.836C551.201 346.663 550.53 347.576 549.97 348.591C549.409 349.605 548.992 350.659 548.688 351.729L545.176 351.795C544.622 351.805 544.181 352.261 544.192 352.815L544.314 359.496C544.325 360.051 544.782 360.491 545.337 360.48L548.853 360.416C549.548 362.553 550.712 364.539 552.317 366.193L550.624 369.257C550.356 369.743 550.53 370.353 551.016 370.621L556.862 373.855C557.348 374.123 557.958 373.947 558.226 373.461L559.92 370.397C562.174 370.877 564.476 370.807 566.656 370.259L568.47 373.272C568.756 373.747 569.372 373.9 569.848 373.613L575.572 370.165C576.045 369.88 576.198 369.263 575.913 368.789L574.101 365.78C574.845 364.953 575.516 364.04 576.077 363.027C576.638 362.011 577.054 360.957 577.36 359.888L580.87 359.823C581.424 359.812 581.865 359.355 581.856 358.801L581.732 352.12" fill="#642994"/>
<path d="M57.7443 390.511L110.072 466.256C111.76 468.707 114.029 470.641 116.525 471.903C119.022 473.169 121.736 473.793 124.446 473.793C126.998 473.793 129.566 473.239 131.958 472.101C134.346 470.969 136.55 469.231 138.261 467.012L216.117 366.329L268.774 434.049L284.66 433.924L365.13 326.993L413.686 371.053L427.421 370.775L573.188 227.301C577.124 223.427 577.174 217.095 573.3 213.159C569.425 209.223 563.094 209.173 559.158 213.047L420.126 349.891L370.452 304.816L355.741 306.208L276.54 411.453L223.99 343.872L208.185 343.893L122.44 454.777L124.456 456.336L123.364 454.041C123.002 454.209 122.652 454.497 122.44 454.777L124.456 456.336L123.364 454.041L124.446 456.315V453.793C124.093 453.793 123.728 453.869 123.364 454.041L124.446 456.315V453.793V456.3L125.578 454.069C125.2 453.877 124.82 453.795 124.446 453.793V456.3L125.578 454.069L124.425 456.339L126.528 454.887C126.318 454.577 125.954 454.253 125.578 454.069L124.425 456.339L126.528 454.887L74.199 379.143C71.0599 374.599 64.8313 373.46 60.2875 376.599C55.7438 379.739 54.6047 385.967 57.7443 390.511" fill="#F03C96"/>
<path d="M479.666 473.419H67.7839C62.6839 473.419 58.2365 477.349 58.0834 482.447C57.925 487.721 62.1542 492.048 67.3933 492.048H103.808C108.167 492.048 111.489 495.681 111.441 500.039V500.143C111.441 505.288 115.61 509.457 120.754 509.457H328.428C333.572 509.457 337.742 505.288 337.742 500.143V500.039C337.694 495.681 341.016 492.048 345.373 492.048H479.276C484.376 492.048 488.824 488.117 488.976 483.02C489.136 477.745 484.906 473.419 479.666 473.419Z" fill="#281D34"/>
<path d="M503.497 230.173H556.173V282.849C556.173 288.372 560.65 292.849 566.173 292.849C571.696 292.849 576.173 288.372 576.173 282.849V220.173C576.173 217.54 575.106 214.965 573.244 213.103C571.382 211.241 568.806 210.173 566.173 210.173H503.497C497.974 210.173 493.497 214.651 493.497 220.173C493.497 225.697 497.974 230.173 503.497 230.173Z" fill="#F03C96"/>
<path d="M538.659 447.603C538.659 449.715 536.947 451.427 534.834 451.427C532.722 451.427 531.01 449.715 531.01 447.603C531.01 445.491 532.722 443.779 534.834 443.779C536.947 443.779 538.659 445.491 538.659 447.603Z" fill="#F03C96"/>
<path d="M545.544 447.603H544.877C544.877 450.377 543.755 452.884 541.936 454.704C540.117 456.521 537.611 457.644 534.835 457.644C532.06 457.644 529.553 456.521 527.735 454.704C525.916 452.884 524.793 450.377 524.793 447.603C524.793 444.828 525.916 442.321 527.735 440.503C529.553 438.684 532.06 437.561 534.835 437.561C537.611 437.561 540.117 438.684 541.936 440.503C543.755 442.321 544.877 444.828 544.877 447.603H545.544H546.211C546.211 441.32 541.119 436.228 534.835 436.228C528.552 436.228 523.46 441.32 523.46 447.603C523.46 453.885 528.552 458.977 534.835 458.977C541.119 458.977 546.211 453.885 546.211 447.603H545.544Z" fill="white"/>
<path d="M535.502 432.693V429.36C535.502 428.991 535.204 428.693 534.836 428.693C534.468 428.693 534.169 428.991 534.169 429.36V432.693C534.169 433.061 534.468 433.36 534.836 433.36C535.204 433.36 535.502 433.061 535.502 432.693Z" fill="white"/>
<path d="M535.502 422.413V415.467C535.502 415.099 535.204 414.8 534.836 414.8C534.468 414.8 534.169 415.099 534.169 415.467V422.413C534.169 422.781 534.468 423.08 534.836 423.08C535.204 423.08 535.502 422.781 535.502 422.413ZM535.502 408.52V401.573C535.502 401.205 535.204 400.907 534.836 400.907C534.468 400.907 534.169 401.205 534.169 401.573V408.52C534.169 408.888 534.468 409.187 534.836 409.187C535.204 409.187 535.502 408.888 535.502 408.52ZM534.781 394.501C534.057 392.156 532.818 390.037 531.197 388.276C530.948 388.005 530.526 387.988 530.256 388.237C529.985 388.487 529.968 388.908 530.217 389.179C531.705 390.797 532.842 392.743 533.506 394.895C533.614 395.247 533.988 395.443 534.34 395.335C534.692 395.227 534.889 394.853 534.781 394.501V394.501ZM525.294 384.189C523.412 383.431 521.354 383.013 519.202 383.013H518.245C517.877 383.013 517.578 383.312 517.578 383.68C517.578 384.048 517.877 384.347 518.245 384.347H519.202C521.181 384.347 523.068 384.729 524.796 385.427C525.137 385.564 525.525 385.399 525.662 385.057C525.801 384.716 525.636 384.327 525.294 384.189ZM511.298 383.013H504.352C503.984 383.013 503.685 383.312 503.685 383.68C503.685 384.048 503.984 384.347 504.352 384.347H511.298C511.666 384.347 511.965 384.048 511.965 383.68C511.965 383.312 511.666 383.013 511.298 383.013ZM497.405 383.013H490.458C490.09 383.013 489.792 383.312 489.792 383.68C489.792 384.048 490.09 384.347 490.458 384.347H497.405C497.773 384.347 498.072 384.048 498.072 383.68C498.072 383.312 497.773 383.013 497.405 383.013ZM483.512 383.013H476.565C476.197 383.013 475.898 383.312 475.898 383.68C475.898 384.048 476.197 384.347 476.565 384.347H483.512C483.881 384.347 484.178 384.048 484.178 383.68C484.178 383.312 483.881 383.013 483.512 383.013Z" fill="white"/>
<path d="M469.601 383.013H466.267C465.899 383.013 465.601 383.312 465.601 383.68C465.601 384.048 465.899 384.347 466.267 384.347H469.601C469.969 384.347 470.267 384.048 470.267 383.68C470.267 383.312 469.969 383.013 469.601 383.013Z" fill="white"/>
<path d="M414.306 153.444C414.306 155.557 412.594 157.269 410.482 157.269C408.37 157.269 406.658 155.557 406.658 153.444C406.658 151.333 408.37 149.62 410.482 149.62C412.594 149.62 414.306 151.333 414.306 153.444Z" fill="#F03C96"/>
<path d="M421.191 153.444H420.525C420.523 156.22 419.401 158.727 417.583 160.545C415.763 162.364 413.258 163.487 410.482 163.487C407.707 163.487 405.201 162.364 403.382 160.545C401.563 158.727 400.441 156.22 400.441 153.444C400.441 150.669 401.563 148.164 403.382 146.344C405.201 144.525 407.707 143.403 410.482 143.403C413.258 143.403 415.763 144.525 417.583 146.344C419.401 148.164 420.523 150.669 420.525 153.444H421.191H421.857C421.857 147.163 416.765 142.071 410.482 142.069C404.199 142.071 399.107 147.163 399.107 153.444C399.107 159.728 404.199 164.82 410.482 164.82C416.765 164.82 421.857 159.728 421.857 153.444H421.191Z" fill="white"/>
<path d="M411.149 142.736V136.069C411.149 135.701 410.85 135.403 410.482 135.403C410.114 135.403 409.815 135.701 409.815 136.069V142.736C409.815 143.104 410.114 143.403 410.482 143.403C410.85 143.403 411.149 143.104 411.149 142.736ZM411.589 129.561C412.01 127.405 412.725 125.355 413.69 123.452C413.857 123.124 413.726 122.723 413.398 122.556C413.069 122.389 412.667 122.52 412.501 122.849C411.481 124.86 410.725 127.028 410.279 129.307C410.209 129.668 410.445 130.017 410.806 130.088C411.167 130.159 411.518 129.923 411.589 129.561ZM417.375 118.143C418.837 116.555 420.513 115.167 422.357 114.027C422.67 113.832 422.767 113.421 422.574 113.108C422.379 112.795 421.969 112.699 421.655 112.892C419.707 114.097 417.937 115.563 416.394 117.24C416.145 117.512 416.162 117.933 416.434 118.183C416.705 118.432 417.126 118.415 417.375 118.143V118.143ZM428.266 111.415C430.299 110.835 432.445 110.521 434.665 110.512C435.033 110.511 435.33 110.212 435.329 109.844C435.327 109.475 435.027 109.177 434.659 109.179C432.318 109.188 430.05 109.52 427.901 110.133C427.547 110.233 427.342 110.603 427.442 110.957C427.543 111.311 427.913 111.516 428.266 111.415V111.415ZM441.329 110.512H447.995C448.363 110.512 448.662 110.213 448.662 109.845C448.662 109.477 448.363 109.179 447.995 109.179H441.329C440.961 109.179 440.662 109.477 440.662 109.845C440.662 110.213 440.961 110.512 441.329 110.512ZM454.662 110.512H461.329C461.697 110.512 461.995 110.213 461.995 109.845C461.995 109.477 461.697 109.179 461.329 109.179H454.662C454.294 109.179 453.995 109.477 453.995 109.845C453.995 110.213 454.294 110.512 454.662 110.512ZM467.995 110.512H474.662C475.03 110.512 475.329 110.213 475.329 109.845C475.329 109.477 475.03 109.179 474.662 109.179H467.995C467.627 109.179 467.329 109.477 467.329 109.845C467.329 110.213 467.627 110.512 467.995 110.512ZM481.329 110.512H487.995C488.363 110.512 488.662 110.213 488.662 109.845C488.662 109.477 488.363 109.179 487.995 109.179H481.329C480.961 109.179 480.662 109.477 480.662 109.845C480.662 110.213 480.961 110.512 481.329 110.512ZM494.662 110.512H501.329C501.697 110.512 501.995 110.213 501.995 109.845C501.995 109.477 501.697 109.179 501.329 109.179H494.662C494.294 109.179 493.995 109.477 493.995 109.845C493.995 110.213 494.294 110.512 494.662 110.512ZM507.995 110.512H514.662C515.03 110.512 515.329 110.213 515.329 109.845C515.329 109.477 515.03 109.179 514.662 109.179H507.995C507.627 109.179 507.329 109.477 507.329 109.845C507.329 110.213 507.627 110.512 507.995 110.512ZM521.329 110.512H525.879C526.573 110.512 527.258 110.543 527.934 110.6C528.302 110.632 528.625 110.36 528.655 109.993C528.687 109.627 528.415 109.304 528.049 109.272C527.334 109.211 526.61 109.179 525.879 109.179H521.329C520.961 109.179 520.662 109.477 520.662 109.845C520.662 110.213 520.961 110.512 521.329 110.512V110.512ZM534.234 112.033C536.274 112.805 538.179 113.852 539.906 115.129C540.202 115.348 540.619 115.287 540.838 114.991C541.057 114.695 540.994 114.276 540.698 114.057C538.875 112.709 536.862 111.603 534.706 110.787C534.361 110.656 533.977 110.829 533.846 111.173C533.715 111.517 533.889 111.903 534.234 112.033V112.033ZM544.529 119.645C545.847 121.341 546.939 123.221 547.759 125.24C547.898 125.581 548.286 125.747 548.627 125.608C548.969 125.469 549.133 125.08 548.994 124.739C548.127 122.605 546.974 120.619 545.582 118.827C545.357 118.536 544.937 118.484 544.646 118.709C544.355 118.936 544.303 119.355 544.529 119.645V119.645ZM549.342 131.504C549.437 132.361 549.485 133.233 549.485 134.117V138.091C549.485 138.459 549.783 138.757 550.151 138.757C550.519 138.757 550.818 138.459 550.818 138.091V134.117C550.818 133.185 550.767 132.264 550.667 131.357C550.627 130.992 550.298 130.728 549.931 130.768C549.566 130.808 549.302 131.137 549.342 131.504V131.504ZM549.485 144.757V151.424C549.485 151.792 549.783 152.091 550.151 152.091C550.519 152.091 550.818 151.792 550.818 151.424V144.757C550.818 144.389 550.519 144.091 550.151 144.091C549.783 144.091 549.485 144.389 549.485 144.757ZM549.485 158.091V164.757C549.485 165.125 549.783 165.424 550.151 165.424C550.519 165.424 550.818 165.125 550.818 164.757V158.091C550.818 157.723 550.519 157.424 550.151 157.424C549.783 157.424 549.485 157.723 549.485 158.091ZM549.485 171.424V178.091C549.485 178.459 549.783 178.757 550.151 178.757C550.519 178.757 550.818 178.459 550.818 178.091V171.424C550.818 171.056 550.519 170.757 550.151 170.757C549.783 170.757 549.485 171.056 549.485 171.424ZM549.485 184.757V191.424C549.485 191.792 549.783 192.091 550.151 192.091C550.519 192.091 550.818 191.792 550.818 191.424V184.757C550.818 184.389 550.519 184.091 550.151 184.091C549.783 184.091 549.485 184.389 549.485 184.757ZM549.485 198.091V199.411C549.485 199.779 549.783 200.077 550.151 200.077C550.519 200.077 550.818 199.779 550.818 199.411V198.091C550.818 197.723 550.519 197.424 550.151 197.424C549.783 197.424 549.485 197.723 549.485 198.091Z" fill="white"/>
<path d="M95.0376 148.192C95.0376 150.305 93.3251 152.017 91.2127 152.017C89.1007 152.017 87.3887 150.305 87.3887 148.192C87.3887 146.08 89.1007 144.368 91.2127 144.368C93.3251 144.368 95.0376 146.08 95.0376 148.192Z" fill="#F03C96"/>
<path d="M101.922 148.192H101.255C101.255 150.968 100.132 153.473 98.3139 155.293C96.4942 157.112 93.9879 158.235 91.213 158.235C88.4379 158.235 85.9316 157.112 84.1124 155.293C82.2942 153.473 81.1718 150.968 81.1712 148.192C81.1718 145.417 82.2942 142.911 84.1124 141.092C85.9316 139.273 88.4379 138.151 91.213 138.151C93.9879 138.151 96.4942 139.273 98.3139 141.092C100.132 142.911 101.255 145.417 101.255 148.192H101.922H102.588C102.588 141.909 97.4952 136.817 91.213 136.817C84.9306 136.817 79.8384 141.909 79.8379 148.192C79.8384 154.475 84.9306 159.567 91.213 159.568C97.4952 159.567 102.588 154.475 102.588 148.192H101.922Z" fill="white"/>
<path d="M101.922 148.859H108.588C108.956 148.859 109.255 148.56 109.255 148.192C109.255 147.824 108.956 147.525 108.588 147.525H101.922C101.553 147.525 101.255 147.824 101.255 148.192C101.255 148.56 101.553 148.859 101.922 148.859ZM115.255 148.859H121.922C122.29 148.859 122.588 148.56 122.588 148.192C122.588 147.824 122.29 147.525 121.922 147.525H115.255C114.887 147.525 114.588 147.824 114.588 148.192C114.588 148.56 114.887 148.859 115.255 148.859ZM128.588 148.859H135.255C135.623 148.859 135.922 148.56 135.922 148.192C135.922 147.824 135.623 147.525 135.255 147.525H128.588C128.22 147.525 127.922 147.824 127.922 148.192C127.922 148.56 128.22 148.859 128.588 148.859ZM141.922 148.859H148.588C148.956 148.859 149.255 148.56 149.255 148.192C149.255 147.824 148.956 147.525 148.588 147.525H141.922C141.554 147.525 141.255 147.824 141.255 148.192C141.255 148.56 141.554 148.859 141.922 148.859ZM155.255 148.859H161.922C162.29 148.859 162.588 148.56 162.588 148.192C162.588 147.824 162.29 147.525 161.922 147.525H155.255C154.887 147.525 154.588 147.824 154.588 148.192C154.588 148.56 154.887 148.859 155.255 148.859ZM168.588 148.859H175.255C175.623 148.859 175.922 148.56 175.922 148.192C175.922 147.824 175.623 147.525 175.255 147.525H168.588C168.22 147.525 167.922 147.824 167.922 148.192C167.922 148.56 168.22 148.859 168.588 148.859ZM181.842 148.977C184.028 149.221 186.102 149.835 188 150.753C188.331 150.915 188.73 150.776 188.89 150.444C189.051 150.113 188.912 149.715 188.58 149.553C186.55 148.569 184.328 147.913 181.99 147.652C181.624 147.611 181.295 147.875 181.254 148.241C181.212 148.607 181.476 148.936 181.842 148.977V148.977ZM193.218 154.477C194.726 155.993 195.98 157.763 196.912 159.713C197.071 160.047 197.47 160.187 197.802 160.028C198.134 159.869 198.274 159.472 198.115 159.139C197.118 157.051 195.776 155.159 194.163 153.537C193.903 153.276 193.482 153.275 193.22 153.535C192.959 153.795 192.958 154.216 193.218 154.477ZM198.655 165.88C198.727 166.549 198.763 167.229 198.763 167.917V172.471C198.763 172.839 199.062 173.137 199.43 173.137C199.798 173.137 200.096 172.839 200.096 172.471V167.917C200.096 167.181 200.058 166.455 199.982 165.739C199.943 165.372 199.614 165.107 199.248 165.147C198.882 165.185 198.616 165.513 198.655 165.88ZM198.763 179.137V185.804C198.763 186.172 199.062 186.471 199.43 186.471C199.798 186.471 200.096 186.172 200.096 185.804V179.137C200.096 178.769 199.798 178.471 199.43 178.471C199.062 178.471 198.763 178.769 198.763 179.137Z" fill="white"/>
<path d="M511.308 548.737H357.909C353.942 548.737 350.728 545.522 350.728 541.556V541.225C350.728 537.259 353.942 534.044 357.909 534.044H511.308C515.274 534.044 518.489 537.259 518.489 541.225V541.556C518.489 545.522 515.274 548.737 511.308 548.737" fill="#281D34"/>
<path d="M451.758 183.607H480.86C481.228 183.607 481.526 183.308 481.526 182.94C481.526 182.572 481.228 182.273 480.86 182.273H451.758C451.39 182.273 451.092 182.572 451.092 182.94C451.092 183.308 451.39 183.607 451.758 183.607" fill="white"/>
<path d="M93.7051 201.188H96.3717V195.514H93.7051V201.188Z" fill="white"/>
<path d="M93.7051 212.628H96.3717V206.953H93.7051V212.628Z" fill="white"/>
<path d="M97.9209 205.404H103.595V202.737H97.9209V205.404Z" fill="white"/>
<path d="M86.4805 205.404H92.1539V202.737H86.4805V205.404Z" fill="white"/>
<path d="M327.849 118.983L324.861 122.537L326.903 124.253L329.891 120.699" fill="white"/>
<path d="M321.823 126.149L318.836 129.704L320.877 131.419L323.864 127.865" fill="white"/>
<path d="M330.581 128.687L327.028 125.699L325.311 127.74L328.864 130.728" fill="white"/>
<path d="M323.414 122.663L319.86 119.675L318.144 121.715L321.698 124.704" fill="white"/>
<path d="M561.147 387.316L558.159 390.871L560.2 392.587L563.188 389.032" fill="white"/>
<path d="M555.124 394.483L552.136 398.036L554.177 399.753L557.165 396.199" fill="white"/>
<path d="M563.881 397.021L560.326 394.033L558.61 396.073L562.165 399.063" fill="white"/>
<path d="M556.715 390.996L553.161 388.008L551.445 390.049L554.999 393.037" fill="white"/>
<path d="M111.325 352.603L108.337 356.156L110.377 357.872L113.367 354.319" fill="white"/>
<path d="M105.3 359.768L102.312 363.323L104.353 365.039L107.341 361.484" fill="white"/>
<path d="M114.057 362.307L110.502 359.317L108.786 361.359L112.341 364.348" fill="white"/>
<path d="M106.891 356.281L103.336 353.293L101.62 355.335L105.174 358.323" fill="white"/>
<path d="M528.293 129.419L523.304 135.353L525.345 137.069L530.334 131.136" fill="white"/>
<path d="M518.232 141.385L513.242 147.319L515.283 149.035L520.273 143.101" fill="white"/>
<path d="M531.596 145.732L525.661 140.741L523.945 142.783L529.88 147.772" fill="white"/>
<path d="M519.631 135.672L513.695 130.681L511.979 132.723L517.915 137.712" fill="white"/>
<path d="M384.145 132.427H382.812C382.808 134.683 380.984 136.508 378.727 136.512C376.471 136.508 374.645 134.683 374.641 132.427C374.645 130.171 376.472 128.344 378.727 128.34C380.983 128.344 382.808 130.171 382.812 132.427H384.145H385.479C385.479 128.697 382.457 125.675 378.727 125.673C374.997 125.675 371.976 128.697 371.975 132.427C371.976 136.156 374.997 139.177 378.727 139.179C382.457 139.177 385.479 136.156 385.479 132.427H384.145Z" fill="white"/>
<path d="M89.9746 109.903H88.6413C88.6397 110.903 87.8298 111.713 86.8293 111.715C85.8287 111.713 85.0189 110.903 85.0173 109.903C85.0189 108.903 85.8293 108.092 86.8293 108.091C87.8298 108.092 88.6397 108.903 88.6413 109.903H89.9746H91.3079C91.3074 107.428 89.3031 105.424 86.8293 105.424C84.3553 105.424 82.3511 107.429 82.3506 109.903C82.3517 112.377 84.3553 114.38 86.8293 114.381C89.3031 114.381 91.3074 112.377 91.3079 109.903H89.9746Z" fill="white"/>
<path d="M79.5797 335.563H78.2464C78.2448 336.413 77.5536 337.105 76.7021 337.107C75.8495 337.105 75.1593 336.415 75.1579 335.563C75.1593 334.709 75.8484 334.02 76.7021 334.019C77.5547 334.02 78.2448 334.709 78.2464 335.563H79.5797H80.9131C80.912 333.236 79.0276 331.352 76.7021 331.352C74.3755 331.352 72.4916 333.236 72.4912 335.563C72.4916 337.888 74.3749 339.772 76.7021 339.773C79.0287 339.772 80.912 337.888 80.9131 335.563H79.5797Z" fill="white"/>
<path d="M550.151 491.763H548.818C548.814 494.199 546.842 496.172 544.406 496.176C541.97 496.172 539.997 494.199 539.993 491.763C539.997 489.327 541.97 487.355 544.406 487.351C546.842 487.355 548.814 489.327 548.818 491.763H550.151H551.485C551.485 487.853 548.315 484.684 544.406 484.684C540.495 484.684 537.328 487.853 537.326 491.763C537.328 495.673 540.495 498.841 544.406 498.843C548.315 498.841 551.485 495.673 551.485 491.763H550.151Z" fill="white"/>
<path d="M313.081 91.9067C312.525 90.8373 312.265 89.704 312.264 88.5813C312.267 85.972 313.68 83.4547 316.155 82.1693C317.223 81.6147 318.357 81.3533 319.479 81.3533C322.089 81.3546 324.605 82.7693 325.891 85.2426L328.257 84.0133C326.496 80.628 323.047 78.6853 319.479 78.6866C317.943 78.6866 316.377 79.048 314.924 79.804C311.54 81.5653 309.596 85.0146 309.599 88.5813C309.597 90.1186 309.959 91.6827 310.716 93.1373L313.081 91.9067" fill="white"/>
<path d="M161.149 489.401C161.149 491.269 159.634 492.785 157.765 492.785C155.896 492.785 154.381 491.269 154.381 489.401C154.381 487.532 155.896 486.017 157.765 486.017C159.634 486.017 161.149 487.532 161.149 489.401Z" fill="white"/>
<path d="M77.6481 449.516C77.6481 450.572 76.7918 451.427 75.7361 451.427C74.6798 451.427 73.8242 450.572 73.8242 449.516C73.8242 448.46 74.6798 447.603 75.7361 447.603C76.7918 447.603 77.6481 448.46 77.6481 449.516Z" fill="white"/>
<path d="M271.178 73.7733C271.178 74.8493 270.305 75.7241 269.229 75.7241C268.152 75.7241 267.278 74.8493 267.278 73.7733C267.278 72.6973 268.152 71.8241 269.229 71.8241C270.305 71.8241 271.178 72.6973 271.178 73.7733Z" fill="white"/>
<path d="M486.292 128.009C486.292 129.043 485.453 129.881 484.418 129.881C483.385 129.881 482.548 129.043 482.548 128.009C482.548 126.976 483.385 126.139 484.418 126.139C485.453 126.139 486.292 126.976 486.292 128.009Z" fill="white"/>
<path d="M230.386 175.727C230.386 177.043 229.319 178.109 228.004 178.109C226.69 178.109 225.623 177.043 225.623 175.727C225.623 174.412 226.69 173.345 228.004 173.345C229.319 173.345 230.386 174.412 230.386 175.727Z" fill="white"/>
<path d="M393.307 81.9574C394.889 79.0987 398.499 78.06 401.358 79.64C404.217 81.22 405.255 84.8307 403.675 87.6893C402.095 90.548 398.483 91.5866 395.626 90.0066C392.767 88.4266 391.729 84.816 393.307 81.9574V81.9574ZM413.069 81.9494C413.059 81.5187 412.703 81.1747 412.271 81.1827L409.531 81.2333C408.991 79.568 408.083 78.0214 406.833 76.732L408.153 74.3453C408.361 73.9667 408.225 73.492 407.847 73.2827L403.291 70.764C402.914 70.5547 402.438 70.692 402.229 71.0693L400.91 73.456C399.153 73.0827 397.361 73.1373 395.662 73.564L394.249 71.2173C394.026 70.848 393.545 70.728 393.175 70.9507L388.716 73.6373C388.346 73.86 388.226 74.34 388.45 74.7093L389.861 77.0547C389.282 77.6974 388.758 78.4093 388.322 79.2C387.885 79.9907 387.561 80.812 387.322 81.6453L384.586 81.696C384.155 81.704 383.811 82.06 383.819 82.492L383.917 87.6973C383.923 88.128 384.281 88.472 384.711 88.464L387.453 88.4134C387.993 90.0787 388.901 91.6254 390.15 92.9147L388.831 95.3027C388.622 95.68 388.758 96.1547 389.137 96.364L393.693 98.8827C394.071 99.092 394.546 98.9547 394.754 98.5773L396.075 96.1907C397.831 96.564 399.625 96.5094 401.322 96.0814L402.737 98.4293C402.959 98.7987 403.439 98.9187 403.809 98.6947L408.269 96.0093C408.638 95.7867 408.757 95.3067 408.534 94.9373L407.123 92.5933C407.702 91.948 408.225 91.2374 408.662 90.4467C409.099 89.656 409.423 88.8346 409.662 88.0013L412.398 87.9507C412.829 87.9427 413.173 87.5867 413.165 87.1547L413.069 81.9494" fill="#642994"/>
<path d="M321.369 404.272V418.684C321.369 426.643 314.917 433.095 306.957 433.095C298.998 433.095 292.546 426.643 292.546 418.684V404.272H267.278V457.492H346.636V404.272H321.369Z" fill="#2A1D46"/>
<path d="M461.991 209.821C461.991 199.217 453.395 190.621 442.793 190.621H194.954L194.967 190.867V409.26H442.793C453.395 409.26 461.991 400.664 461.991 390.06V209.821" fill="#232456"/>
<path d="M216.778 409.26C206.174 409.26 197.579 400.664 197.579 390.06V209.821C197.579 199.217 206.174 190.621 216.778 190.621H171.122C160.518 190.621 151.922 199.217 151.922 209.821V390.06C151.922 400.664 160.518 409.26 171.122 409.26H216.778Z" fill="#191B3D"/>
<path d="M176.623 390.827C172.166 390.827 168.553 387.213 168.553 382.756V227.087H445.361V382.756C445.361 387.213 441.749 390.827 437.291 390.827H176.623Z" fill="#B9E8FB"/>
<path d="M362.156 385.043H256.796C251.147 385.043 246.568 380.465 246.568 374.815V374.345C246.568 368.696 251.147 364.117 256.796 364.117H362.156C367.804 364.117 372.384 368.696 372.384 374.345V374.815C372.384 380.465 367.804 385.043 362.156 385.043" fill="#EA2281"/>
<path d="M265.843 377.247H353.109C354.582 377.247 355.775 376.053 355.775 374.581C355.775 373.108 354.582 371.915 353.109 371.915H265.843C264.37 371.915 263.177 373.108 263.177 374.581C263.177 376.053 264.37 377.247 265.843 377.247Z" fill="#F03C96"/>
<path d="M229.342 346.972H195.37C193.494 346.972 191.973 345.452 191.973 343.576V248.869C191.973 246.993 193.494 245.472 195.37 245.472H229.342C231.218 245.472 232.739 246.993 232.739 248.869V343.576C232.739 345.452 231.218 346.972 229.342 346.972" fill="#7FC1D5"/>
<path d="M428.386 289.604H381.506C379.63 289.604 378.108 288.083 378.108 286.207V247.005C378.108 245.129 379.63 243.608 381.506 243.608H428.386C430.262 243.608 431.784 245.129 431.784 247.005V286.207C431.784 288.083 430.262 289.604 428.386 289.604Z" fill="#7FC1D5"/>
<path d="M428.386 346.965H381.506C379.63 346.965 378.108 345.444 378.108 343.568V304.367C378.108 302.491 379.63 300.969 381.506 300.969H428.386C430.262 300.969 431.784 302.491 431.784 304.367V343.568C431.784 345.444 430.262 346.965 428.386 346.965" fill="#7FC1D5"/>
<path d="M436.069 209.056H177.845C172.714 209.056 168.553 213.216 168.553 218.348V230.24H445.361V218.348C445.361 213.216 441.199 209.056 436.069 209.056Z" fill="#642994"/>
<path d="M372.303 473.555H242.652V471.013C242.652 461.223 250.59 453.285 260.38 453.285H354.575C364.364 453.285 372.303 461.223 372.303 471.013V473.555Z" fill="#55BBED"/>
<path d="M431.784 219.513C431.784 221.149 430.456 222.477 428.819 222.477C427.183 222.477 425.856 221.149 425.856 219.513C425.856 217.876 427.183 216.549 428.819 216.549C430.456 216.549 431.784 217.876 431.784 219.513Z" fill="white"/>
<path d="M420.407 219.648C420.407 221.284 419.08 222.611 417.443 222.611C415.805 222.611 414.479 221.284 414.479 219.648C414.479 218.011 415.805 216.684 417.443 216.684C419.08 216.684 420.407 218.011 420.407 219.648Z" fill="#55BBED"/>
<path d="M407.831 219.513C407.831 221.149 406.505 222.477 404.867 222.477C403.231 222.477 401.903 221.149 401.903 219.513C401.903 217.876 403.231 216.549 404.867 216.549C406.505 216.549 407.831 217.876 407.831 219.513Z" fill="#F03C96"/>
<path d="M435.751 400.013C435.751 401.927 434.199 403.479 432.286 403.479C430.371 403.479 428.819 401.927 428.819 400.013C428.819 398.099 430.371 396.547 432.286 396.547C434.199 396.547 435.751 398.099 435.751 400.013Z" fill="#F03C96"/>
<path d="M244.736 390.827H187.208L209.28 346.972H229.343C231.219 346.972 232.74 345.452 232.74 343.576V300.36L248.253 269.539C249.631 270.56 251.336 271.164 253.184 271.164H304.963L258.179 364.117H256.797C251.148 364.117 246.569 368.696 246.569 374.345V374.815C246.569 377.5 247.604 379.944 249.296 381.768L244.736 390.827" fill="#CCEFFC"/>
<path d="M249.295 381.768C247.603 379.944 246.568 377.5 246.568 374.815V374.345C246.568 368.696 251.147 364.117 256.796 364.117H258.178L249.295 381.768" fill="#F055A9"/>
<path d="M229.342 346.972H209.279L232.739 300.36V343.576C232.739 345.452 231.218 346.972 229.342 346.972" fill="#A4D5E2"/>
<path d="M293.375 390.827H255.533L258.444 385.043H296.285L293.375 390.827ZM306.817 364.117H268.976L315.759 271.164H353.6L306.817 364.117Z" fill="#CCEFFC"/>
<path d="M296.285 385.043H258.443L263.302 375.391C263.645 376.467 264.653 377.247 265.843 377.247H300.209L296.285 385.043ZM264.979 372.057L268.975 364.117H306.817L302.893 371.915H265.843C265.541 371.915 265.25 371.964 264.979 372.057" fill="#F055A9"/>
<path d="M300.208 377.247H265.843C264.652 377.247 263.644 376.467 263.302 375.391L264.979 372.057C265.25 371.964 265.54 371.915 265.843 371.915H302.892L300.208 377.247" fill="#F470B7"/>
<path d="M321.125 287.772C324.149 287.772 327.034 288.291 329.754 289.237V278.164C329.754 277.045 328.847 276.139 327.729 276.139H314.233C313.113 276.139 312.206 277.045 312.206 278.164V289.371C315.002 288.188 317.973 287.653 321.125 287.772Z" fill="#3D91CE"/>
<path d="M340.419 295.765C343.802 299.169 346.141 303.184 347.438 307.805C347.483 308.148 347.529 308.491 347.577 308.832L356.45 303.709C357.418 303.149 357.75 301.911 357.193 300.941L350.443 289.253C349.885 288.284 348.645 287.952 347.677 288.511L338.269 293.943C339.006 294.517 339.723 295.125 340.419 295.765" fill="#3D91CE"/>
<path d="M296.187 304.547C297.288 301.164 299.168 298.236 301.829 295.765C302.432 295.116 303.063 294.515 303.72 293.959L294.285 288.511C293.316 287.952 292.077 288.284 291.517 289.253L284.769 300.941C284.209 301.911 284.541 303.149 285.511 303.709L294.493 308.895C294.887 307.399 295.451 305.949 296.187 304.547" fill="#3D91CE"/>
<path d="M301.829 334.356C298.447 330.952 296.108 326.937 294.811 322.315C294.675 321.3 294.539 320.284 294.403 319.269L285.511 324.403C284.541 324.963 284.209 326.201 284.769 327.171L291.517 338.859C292.077 339.828 293.316 340.16 294.285 339.6L302.432 334.896C302.229 334.719 302.028 334.539 301.829 334.356" fill="#3D91CE"/>
<path d="M321.125 342.349C317.991 342.349 315.01 341.792 312.206 340.78V349.947C312.206 351.067 313.113 351.973 314.233 351.973H327.729C328.847 351.973 329.754 351.067 329.754 349.947V340.872C327.043 341.972 324.166 342.464 321.125 342.349Z" fill="#3D91CE"/>
<path d="M346.062 325.575C344.962 328.957 343.082 331.884 340.419 334.356C340.204 334.587 339.984 334.811 339.762 335.031L347.676 339.6C348.644 340.16 349.884 339.828 350.443 338.859L357.192 327.171C357.75 326.201 357.418 324.963 356.45 324.403L348.111 319.588C347.747 321.671 347.064 323.665 346.062 325.575Z" fill="#3D91CE"/>
<path d="M320.98 283.929C304.343 283.929 290.854 297.417 290.854 314.056C290.854 330.695 304.343 344.183 320.98 344.183C337.619 344.183 351.107 330.695 351.107 314.056C351.107 297.417 337.619 283.929 320.98 283.929ZM320.98 295.427C331.252 295.427 339.609 303.784 339.609 314.056C339.609 324.328 331.252 332.685 320.98 332.685C310.708 332.685 302.352 324.328 302.352 314.056C302.352 303.784 310.708 295.427 320.98 295.427Z" fill="#55BBED"/>
<path d="M320.98 291.883C308.735 291.883 298.807 301.809 298.807 314.056C298.807 326.303 308.735 336.229 320.98 336.229C333.227 336.229 343.155 326.303 343.155 314.056C343.155 301.809 333.227 291.883 320.98 291.883ZM320.98 305.508C325.695 305.508 329.528 309.343 329.528 314.056C329.528 318.768 325.695 322.603 320.98 322.603C316.268 322.603 312.433 318.768 312.433 314.056C312.433 309.343 316.268 305.508 320.98 305.508Z" fill="#3D91CE"/>
<path d="M269.465 302.701C270.775 303.427 271.901 304.343 272.853 305.404L275.505 300.607C275.773 300.121 275.598 299.511 275.113 299.244L269.265 296.009C268.779 295.743 268.17 295.917 267.902 296.403L265.217 301.257C266.711 301.416 268.127 301.896 269.465 302.701" fill="#EA2281"/>
<path d="M275.91 310.788C276.559 313.073 276.611 315.372 276.066 317.687C276.003 317.845 275.942 318.005 275.879 318.164L280.953 318.071C281.506 318.06 281.947 317.603 281.937 317.048L281.813 310.367C281.803 309.813 281.346 309.372 280.791 309.383L275.414 309.483C275.595 309.909 275.761 310.344 275.91 310.788" fill="#EA2281"/>
<path d="M254.64 303.996C255.928 302.793 257.444 301.976 259.189 301.543C259.606 301.405 260.024 301.296 260.441 301.212L257.658 296.592C257.372 296.117 256.756 295.965 256.281 296.251L250.557 299.699C250.082 299.984 249.929 300.601 250.216 301.075L252.865 305.475C253.393 304.92 253.985 304.427 254.64 303.996Z" fill="#EA2281"/>
<path d="M249.944 318.263C249.295 315.977 249.243 313.679 249.788 311.364C249.972 310.892 250.156 310.42 250.34 309.948L245.259 310.041C244.704 310.052 244.264 310.509 244.275 311.064L244.397 317.744C244.408 318.299 244.865 318.739 245.419 318.728L250.076 318.641C250.031 318.517 249.987 318.391 249.944 318.263Z" fill="#EA2281"/>
<path d="M256.388 326.349C255.032 325.599 253.874 324.643 252.9 323.532L250.704 327.505C250.436 327.989 250.612 328.6 251.096 328.868L256.944 332.101C257.43 332.369 258.04 332.195 258.307 331.709L260.482 327.777C259.044 327.604 257.68 327.128 256.388 326.349" fill="#EA2281"/>
<path d="M271.214 325.056C269.926 326.257 268.41 327.076 266.664 327.509C266.516 327.557 266.367 327.601 266.218 327.644L268.552 331.52C268.838 331.993 269.454 332.147 269.928 331.861L275.652 328.413C276.127 328.128 276.28 327.511 275.995 327.036L273.535 322.953C272.878 323.767 272.104 324.469 271.214 325.056" fill="#EA2281"/>
<path d="M270.322 301.003C263.113 297.016 254.038 299.629 250.051 306.839C246.066 314.048 248.678 323.124 255.887 327.109C263.097 331.095 272.173 328.481 276.158 321.273C280.145 314.064 277.531 304.988 270.322 301.003ZM267.567 305.984C272.018 308.445 273.638 314.068 271.177 318.519C268.715 322.969 263.093 324.588 258.642 322.128C254.191 319.667 252.573 314.044 255.033 309.592C257.494 305.143 263.117 303.524 267.567 305.984" fill="#F03C96"/>
<path d="M268.417 304.448C263.11 301.515 256.432 303.437 253.498 308.744C250.564 314.049 252.488 320.729 257.793 323.663C263.1 326.597 269.778 324.675 272.713 319.368C275.646 314.061 273.724 307.381 268.417 304.448V304.448ZM265.153 310.353C267.194 311.481 267.938 314.061 266.809 316.103C265.68 318.145 263.1 318.888 261.057 317.759C259.016 316.631 258.273 314.051 259.402 312.008C260.53 309.967 263.11 309.224 265.153 310.353" fill="#EA2281"/>
<path d="M216.096 350.011L207.631 335.125H131.376V473.419H154.249H230.387V358.82L216.096 350.011Z" fill="#FBD026"/>
<path d="M207.63 338.44V358.82L230.386 367.751V358.82L207.63 338.44Z" fill="#F68612"/>
<path d="M207.63 335.125V358.82H230.386L207.63 335.125Z" fill="white"/>
<path d="M498.919 175.928C498.919 194.259 484.059 209.119 465.727 209.119C447.396 209.119 432.535 194.259 432.535 175.928C432.535 157.596 447.396 142.736 465.727 142.736C484.059 142.736 498.919 157.596 498.919 175.928Z" fill="#FAC109"/>
<path d="M484.761 154.528C492.076 161.483 494.105 171.22 489.297 176.277C484.488 181.335 474.661 179.797 467.348 172.843C460.033 165.889 458.004 156.152 462.812 151.095C467.621 146.037 477.448 147.575 484.761 154.528" fill="#FBD026"/>
<path d="M474.364 218.704H457.092C453.418 218.704 450.36 215.889 450.052 212.231L448.909 198.596H482.548L481.405 212.231C481.097 215.889 478.037 218.704 474.364 218.704" fill="#FAC109"/>
<path d="M467 218.26L454.609 178.856C454.388 178.153 453.64 177.763 452.937 177.984C452.234 178.205 451.844 178.953 452.065 179.656L464.456 219.06C464.677 219.763 465.425 220.153 466.128 219.932C466.83 219.711 467.22 218.963 467 218.26Z" fill="white"/>
<path d="M467.564 219.06L479.955 179.656C480.175 178.953 479.785 178.205 479.083 177.984C478.38 177.763 477.631 178.153 477.411 178.856L465.02 218.26C464.799 218.963 465.189 219.711 465.892 219.932C466.595 220.153 467.343 219.763 467.564 219.06Z" fill="white"/>
<path d="M472.36 234.897C472.36 238.56 469.391 241.529 465.727 241.529C462.064 241.529 459.094 238.56 459.094 234.897C459.094 231.235 462.064 228.265 465.727 228.265C469.391 228.265 472.36 231.235 472.36 234.897Z" fill="#8FD9D0"/>
<path d="M456.074 227.595H475.382C478.064 227.595 480.237 225.421 480.237 222.74C480.237 220.059 478.064 217.885 475.382 217.885H456.074C453.393 217.885 451.22 220.059 451.22 222.74C451.22 225.421 453.393 227.595 456.074 227.595Z" fill="#C3EBE6"/>
<path d="M458.773 235.689H472.683C475.363 235.689 477.538 233.516 477.538 230.835C477.538 228.155 475.363 225.981 472.683 225.981H458.773C456.091 225.981 453.918 228.155 453.918 230.835C453.918 233.516 456.091 235.689 458.773 235.689Z" fill="#C3EBE6"/>
<path d="M458.773 235.689H460.203C462.885 235.689 465.058 233.516 465.058 230.835C465.058 228.155 462.885 225.981 460.203 225.981H458.773C456.091 225.981 453.918 228.155 453.918 230.835C453.918 233.516 456.091 235.689 458.773 235.689Z" fill="#A7E1DA"/>
<path d="M456.074 227.595H462.902C465.584 227.595 467.757 225.421 467.757 222.74C467.757 220.059 465.584 217.885 462.902 217.885H456.074C453.393 217.885 451.22 220.059 451.22 222.74C451.22 225.421 453.393 227.595 456.074 227.595Z" fill="#A7E1DA"/>
<path d="M148.581 377.932H213.597V372.599H148.581V377.932Z" fill="#F68612"/>
<path d="M148.581 392.215H213.597V386.881H148.581V392.215Z" fill="#F68612"/>
<path d="M148.581 406.497H213.597V401.164H148.581V406.497Z" fill="#F68612"/>
<path d="M148.581 420.78H213.597V415.447H148.581V420.78Z" fill="#F68612"/>
<path d="M187.258 270.475C185.639 270.475 184.524 268.907 184.996 267.36C186.156 263.557 186.683 259.48 186.443 255.245C185.455 237.837 171.3 223.664 153.891 222.669C137.048 221.708 122.632 232.788 118.447 248.093C118.014 249.68 116.11 250.288 114.77 249.333C111.144 246.752 106.712 245.232 101.921 245.232C89.6704 245.232 79.7392 255.164 79.7392 267.415C79.7392 268.011 79.7714 268.599 79.8241 269.181C79.8876 269.877 79.3345 270.475 78.6345 270.475C69.9512 270.475 62.9121 277.513 62.9121 286.197V289.897C62.9121 298.581 69.9512 305.62 78.6345 305.62H187.258C195.942 305.62 202.98 298.581 202.98 289.897V286.197C202.98 277.513 195.942 270.475 187.258 270.475" fill="white"/>
<path d="M187.258 300.323H78.6345C70.2204 300.323 63.3709 293.708 62.9521 285.399C62.9386 285.665 62.9121 285.928 62.9121 286.197V289.897C62.9121 298.581 69.9512 305.62 78.6345 305.62H187.258C195.942 305.62 202.98 298.581 202.98 289.897V286.197C202.98 285.928 202.954 285.665 202.94 285.399C202.522 293.708 195.671 300.323 187.258 300.323Z" fill="#B9E8FB"/>
<path d="M124.806 289.164H114.239V268.545H124.806V289.164Z" fill="#55BBED"/>
<path d="M124.806 274.711H114.239V268.545H124.806V274.711Z" fill="#3D99BE"/>
<path d="M154.381 257.513H143.812V278.132H154.381V257.513Z" fill="#F03C96"/>
<path d="M154.381 271.628H143.812V278.132H154.381V271.628Z" fill="#E41D79"/>
<path d="M107.471 272.801L119.524 257.652L131.576 272.801H107.471Z" fill="#55BBED"/>
<path d="M137.045 273.876L149.097 289.025L161.149 273.876H137.045Z" fill="#F03C96"/>
<path d="M547.985 363.647H408.17C402.825 363.647 398.491 359.313 398.491 353.971V278.229L469.457 267.547L557.662 278.229V353.971C557.662 359.313 553.33 363.647 547.985 363.647Z" fill="white"/>
<path d="M547.985 357.008H408.17C402.825 357.008 398.491 352.675 398.491 347.329V353.971C398.491 359.313 402.825 363.647 408.17 363.647H547.985C553.33 363.647 557.662 359.313 557.662 353.971V347.329C557.662 352.675 553.33 357.008 547.985 357.008Z" fill="#B9E8FB"/>
<path d="M557.662 278.229H398.491V269.183C398.491 263.959 402.727 259.723 407.953 259.723H548.202C553.427 259.723 557.662 263.959 557.662 269.183V278.229Z" fill="#6D51AD"/>
<path d="M444.135 272.363H546.889C548.362 272.363 549.555 271.169 549.555 269.696C549.555 268.224 548.362 267.029 546.889 267.029H444.135C442.662 267.029 441.469 268.224 441.469 269.696C441.469 271.169 442.662 272.363 444.135 272.363Z" fill="white"/>
<path d="M427.728 269.848C427.728 271.836 429.34 273.448 431.328 273.448C433.316 273.448 434.926 271.836 434.926 269.848C434.926 267.86 433.316 266.248 431.328 266.248C429.34 266.248 427.728 267.86 427.728 269.848Z" fill="#55BBED"/>
<path d="M417.305 269.848C417.305 271.836 418.917 273.448 420.905 273.448C422.893 273.448 424.505 271.836 424.505 269.848C424.505 267.86 422.893 266.248 420.905 266.248C418.917 266.248 417.305 267.86 417.305 269.848Z" fill="#FAC109"/>
<path d="M406.882 269.848C406.882 271.836 408.494 273.448 410.482 273.448C412.471 273.448 414.083 271.836 414.083 269.848C414.083 267.86 412.471 266.248 410.482 266.248C408.494 266.248 406.882 267.86 406.882 269.848Z" fill="#F03C96"/>
<path d="M498.65 311.217L506.429 318.997L498.65 326.776C497.348 328.077 497.348 330.188 498.65 331.489C499.951 332.792 502.062 332.792 503.365 331.489L513.499 321.355C514.801 320.052 514.802 317.943 513.499 316.64L503.365 306.504C502.062 305.201 499.952 305.201 498.65 306.504C497.348 307.805 497.348 309.916 498.65 311.217" fill="#F03C96"/>
<path d="M457.726 306.504L447.59 316.64C446.289 317.943 446.289 320.052 447.59 321.355L457.726 331.489C459.028 332.792 461.138 332.792 462.44 331.489C463.742 330.188 463.742 328.077 462.44 326.776L454.661 318.997L462.44 311.217C463.742 309.916 463.741 307.805 462.44 306.504C461.138 305.201 459.028 305.203 457.726 306.504" fill="#F03C96"/>
<path d="M485.523 303.052L470.302 331.824C469.441 333.452 470.062 335.468 471.689 336.329C473.317 337.191 475.334 336.569 476.194 334.941L491.415 306.169C492.277 304.543 491.655 302.525 490.029 301.664C488.401 300.804 486.383 301.425 485.523 303.052Z" fill="#55BBED"/>
<path d="M511.195 513.228H359.558C355.529 513.228 352.265 509.964 352.265 505.936V424.027L445.923 409.925L518.489 424.027V505.936C518.489 509.964 515.223 513.228 511.195 513.228" fill="white"/>
<path d="M511.195 506.88H359.558C355.529 506.88 352.265 503.616 352.265 499.587V505.936C352.265 509.964 355.529 513.228 359.558 513.228H511.195C515.223 513.228 518.489 509.964 518.489 505.936V499.587C518.489 503.616 515.223 506.88 511.195 506.88" fill="#B9E8FB"/>
<path d="M518.489 424.027H352.265V412.949C352.265 409.18 355.321 406.124 359.09 406.124H511.662C515.433 406.124 518.489 409.18 518.489 412.949V424.027" fill="#55BBED"/>
<path d="M399.93 417.781H507.238C508.71 417.781 509.905 416.587 509.905 415.115C509.905 413.641 508.71 412.448 507.238 412.448H399.93C398.458 412.448 397.264 413.641 397.264 415.115C397.264 416.587 398.458 417.781 399.93 417.781Z" fill="white"/>
<path d="M382.796 415.273C382.796 417.349 384.479 419.032 386.556 419.032C388.632 419.032 390.315 417.349 390.315 415.273C390.315 413.196 388.632 411.513 386.556 411.513C384.479 411.513 382.796 413.196 382.796 415.273Z" fill="#6D51AD"/>
<path d="M371.911 415.273C371.911 417.349 373.594 419.032 375.67 419.032C377.747 419.032 379.43 417.349 379.43 415.273C379.43 413.196 377.747 411.513 375.67 411.513C373.594 411.513 371.911 413.196 371.911 415.273Z" fill="#FAC109"/>
<path d="M361.027 415.273C361.027 417.349 362.71 419.032 364.786 419.032C366.862 419.032 368.546 417.349 368.546 415.273C368.546 413.196 366.862 411.513 364.786 411.513C362.71 411.513 361.027 413.196 361.027 415.273Z" fill="#F03C96"/>
<path d="M477.867 447.665H486.292C488.132 447.665 489.625 446.173 489.625 444.332C489.625 442.491 488.132 440.999 486.292 440.999H477.867C476.027 440.999 474.533 442.491 474.533 444.332C474.533 446.173 476.027 447.665 477.867 447.665Z" fill="#F03C96"/>
<path d="M456.354 447.665H466.349C468.189 447.665 469.682 446.173 469.682 444.332C469.682 442.491 468.189 440.999 466.349 440.999H456.354C454.513 440.999 453.021 442.491 453.021 444.332C453.021 446.173 454.513 447.665 456.354 447.665Z" fill="#F03C96"/>
<path d="M437.313 447.665H445.518C447.358 447.665 448.851 446.173 448.851 444.332C448.851 442.491 447.358 440.999 445.518 440.999H437.313C435.473 440.999 433.979 442.491 433.979 444.332C433.979 446.173 435.473 447.665 437.313 447.665Z" fill="#F03C96"/>
<path d="M415.755 447.665H426.618C428.459 447.665 429.951 446.173 429.951 444.332C429.951 442.491 428.459 440.999 426.618 440.999H415.755C413.915 440.999 412.422 442.491 412.422 444.332C412.422 446.173 413.915 447.665 415.755 447.665Z" fill="#F03C96"/>
<path d="M397.474 447.665H405.482C407.323 447.665 408.815 446.173 408.815 444.332C408.815 442.491 407.323 440.999 405.482 440.999H397.474C395.634 440.999 394.141 442.491 394.141 444.332C394.141 446.173 395.634 447.665 397.474 447.665Z" fill="#F03C96"/>
<path d="M376.67 447.665H387.544C389.385 447.665 390.877 446.173 390.877 444.332C390.877 442.491 389.385 440.999 387.544 440.999H376.67C374.829 440.999 373.337 442.491 373.337 444.332C373.337 446.173 374.829 447.665 376.67 447.665Z" fill="#F03C96"/>
<path d="M474.178 495.896H484.946C486.787 495.896 488.279 494.404 488.279 492.563C488.279 490.721 486.787 489.229 484.946 489.229H474.178C472.337 489.229 470.845 490.721 470.845 492.563C470.845 494.404 472.337 495.896 474.178 495.896Z" fill="#F03C96"/>
<path d="M446.944 495.896H460.414C462.254 495.896 463.748 494.404 463.748 492.563C463.748 490.721 462.254 489.229 460.414 489.229H446.944C445.102 489.229 443.61 490.721 443.61 492.563C443.61 494.404 445.102 495.896 446.944 495.896Z" fill="#F03C96"/>
<path d="M422.612 495.896H434.265C436.106 495.896 437.598 494.404 437.598 492.563C437.598 490.721 436.106 489.229 434.265 489.229H422.612C420.77 489.229 419.278 490.721 419.278 492.563C419.278 494.404 420.77 495.896 422.612 495.896Z" fill="#F03C96"/>
<path d="M397.798 495.896H410.098C411.94 495.896 413.432 494.404 413.432 492.563C413.432 490.721 411.94 489.229 410.098 489.229H397.798C395.957 489.229 394.465 490.721 394.465 492.563C394.465 494.404 395.957 495.896 397.798 495.896Z" fill="#F03C96"/>
<path d="M376.67 495.896H385.953C387.794 495.896 389.286 494.404 389.286 492.563C389.286 490.721 387.794 489.229 385.953 489.229H376.67C374.829 489.229 373.337 490.721 373.337 492.563C373.337 494.404 374.829 495.896 376.67 495.896Z" fill="#F03C96"/>
<path d="M481.919 463.743H487.795C489.635 463.743 491.129 462.249 491.129 460.409C491.129 458.568 489.635 457.076 487.795 457.076H481.919C480.079 457.076 478.586 458.568 478.586 460.409C478.586 462.249 480.079 463.743 481.919 463.743Z" fill="#55BBED"/>
<path d="M461.117 463.743H470.622C472.462 463.743 473.955 462.249 473.955 460.409C473.955 458.568 472.462 457.076 470.622 457.076H461.117C459.275 457.076 457.783 458.568 457.783 460.409C457.783 462.249 459.275 463.743 461.117 463.743Z" fill="#55BBED"/>
<path d="M437.64 463.743H449.791C451.631 463.743 453.124 462.249 453.124 460.409C453.124 458.568 451.631 457.076 449.791 457.076H437.64C435.8 457.076 434.307 458.568 434.307 460.409C434.307 462.249 435.8 463.743 437.64 463.743Z" fill="#55BBED"/>
<path d="M414.429 463.743H424.368C426.209 463.743 427.701 462.249 427.701 460.409C427.701 458.568 426.209 457.076 424.368 457.076H414.429C412.589 457.076 411.096 458.568 411.096 460.409C411.096 462.249 412.589 463.743 414.429 463.743Z" fill="#55BBED"/>
<path d="M395.007 463.743H402.903C404.743 463.743 406.236 462.249 406.236 460.409C406.236 458.568 404.743 457.076 402.903 457.076H395.007C393.166 457.076 391.674 458.568 391.674 460.409C391.674 462.249 393.166 463.743 395.007 463.743Z" fill="#55BBED"/>
<path d="M376.67 463.743H384.145C385.986 463.743 387.478 462.249 387.478 460.409C387.478 458.568 385.986 457.076 384.145 457.076H376.67C374.829 457.076 373.337 458.568 373.337 460.409C373.337 462.249 374.829 463.743 376.67 463.743Z" fill="#55BBED"/>
<path d="M434.265 479.819H441.673C443.514 479.819 445.006 478.327 445.006 476.485C445.006 474.645 443.514 473.152 441.673 473.152H434.265C432.424 473.152 430.932 474.645 430.932 476.485C430.932 478.327 432.424 479.819 434.265 479.819Z" fill="#FAC109"/>
<path d="M406.908 479.819H422.35C424.19 479.819 425.684 478.327 425.684 476.485C425.684 474.645 424.19 473.152 422.35 473.152H406.908C405.066 473.152 403.574 474.645 403.574 476.485C403.574 478.327 405.066 479.819 406.908 479.819Z" fill="#FAC109"/>
<path d="M376.788 479.819H395.118C396.959 479.819 398.451 478.327 398.451 476.485C398.451 474.645 396.959 473.152 395.118 473.152H376.788C374.947 473.152 373.455 474.645 373.455 476.485C373.455 478.327 374.947 479.819 376.788 479.819Z" fill="#FAC109"/>
<path d="M365.021 271.164H353.6L373.223 232.173H335.382L315.758 271.164H304.962L325.56 230.24H373.308V262.877C373.308 267.453 369.597 271.164 365.021 271.164V271.164ZM248.253 269.539C246.216 268.028 244.896 265.607 244.896 262.877V230.24H268.032L248.253 269.539" fill="#7CD1F5"/>
<path d="M373.308 190.621H244.896V172.871C244.896 168.295 248.606 164.584 253.183 164.584H365.021C369.597 164.584 373.308 168.295 373.308 172.871V190.621Z" fill="#15172A"/>
<path d="M244.896 209.056H373.308V190.622H244.896V209.056Z" fill="#100F0D"/>
<path d="M373.308 230.24H325.56L336.221 209.056H278.694L268.032 230.24H244.896V209.056H373.308V230.24" fill="#15172A"/>
<path d="M304.962 271.164H253.184C251.336 271.164 249.63 270.56 248.253 269.539L268.032 230.24H325.56L304.962 271.164Z" fill="#9DDFF9"/>
<path d="M325.559 230.24H268.031L278.694 209.056H336.221L325.559 230.24Z" fill="#2D2666"/>
<path d="M353.599 271.164H315.758L335.382 232.173H373.223L353.599 271.164Z" fill="#9DDFF9"/>
<path d="M365.021 265.785H253.183C248.606 265.785 244.896 262.076 244.896 257.5V167.493C244.896 162.916 248.606 159.205 253.183 159.205H365.021C369.597 159.205 373.308 162.916 373.308 167.493V257.5C373.308 262.076 369.597 265.785 365.021 265.785Z" fill="#F03C96"/>
<path d="M364.83 229.219H253.373C248.692 229.219 244.896 225.423 244.896 220.74V257.308C244.896 261.991 248.692 265.785 253.373 265.785H364.83C369.513 265.785 373.308 261.991 373.308 257.308V220.74C373.308 225.423 369.513 229.219 364.83 229.219" fill="#55BBED"/>
<path d="M280.177 213.257C278.495 213.257 276.933 212.942 275.492 212.311C274.05 211.68 272.909 210.659 272.068 209.248C271.227 207.836 270.807 205.959 270.807 203.616V189.696C270.807 187.353 271.242 185.476 272.113 184.065C272.984 182.653 274.125 181.632 275.537 181.001C276.978 180.37 278.555 180.055 280.267 180.055C282.249 180.055 283.931 180.4 285.313 181.091C286.694 181.782 287.746 182.698 288.466 183.839C289.217 184.981 289.593 186.242 289.593 187.624C289.593 188.344 289.457 188.825 289.187 189.065C288.947 189.275 288.586 189.381 288.106 189.381C287.565 189.381 287.175 189.275 286.935 189.065C286.724 188.825 286.604 188.555 286.574 188.254C286.574 187.774 286.484 187.233 286.304 186.632C286.154 186.002 285.853 185.401 285.403 184.83C284.982 184.23 284.352 183.749 283.511 183.389C282.7 182.998 281.634 182.803 280.312 182.803C278.21 182.803 276.603 183.374 275.492 184.515C274.381 185.626 273.825 187.353 273.825 189.696V203.616C273.825 205.989 274.381 207.731 275.492 208.842C276.633 209.954 278.285 210.509 280.447 210.509C281.799 210.509 282.865 210.329 283.646 209.969C284.427 209.578 285.012 209.113 285.403 208.572C285.793 208.001 286.064 207.401 286.214 206.77C286.394 206.109 286.514 205.509 286.574 204.968C286.634 204.578 286.769 204.292 286.98 204.112C287.22 203.902 287.58 203.797 288.061 203.797C288.571 203.797 288.947 203.932 289.187 204.202C289.457 204.442 289.593 204.923 289.593 205.644C289.593 206.995 289.217 208.257 288.466 209.428C287.716 210.569 286.634 211.5 285.223 212.221C283.841 212.912 282.159 213.257 280.177 213.257ZM296.323 212.987C295.932 212.987 295.587 212.897 295.287 212.717C294.986 212.506 294.836 212.206 294.836 211.816V181.497C294.836 180.956 294.986 180.581 295.287 180.37C295.587 180.16 295.932 180.055 296.323 180.055C296.683 180.055 296.998 180.16 297.269 180.37C297.569 180.551 297.839 180.806 298.08 181.136C298.32 181.437 298.53 181.782 298.71 182.172L306.459 197.084L314.163 182.172C314.403 181.782 314.628 181.437 314.838 181.136C315.079 180.806 315.349 180.551 315.649 180.37C315.95 180.16 316.265 180.055 316.595 180.055C317.016 180.055 317.361 180.16 317.632 180.37C317.932 180.581 318.082 180.956 318.082 181.497V211.816C318.082 212.206 317.932 212.506 317.632 212.717C317.331 212.897 316.986 212.987 316.595 212.987C316.235 212.987 315.89 212.897 315.559 212.717C315.259 212.506 315.109 212.206 315.109 211.816V186.497L307.63 200.643C307.45 201.004 307.255 201.259 307.045 201.409C306.834 201.559 306.624 201.634 306.414 201.634C306.234 201.634 306.039 201.559 305.828 201.409C305.618 201.259 305.408 201.004 305.198 200.643L297.809 186.407V211.816C297.809 212.206 297.644 212.506 297.314 212.717C297.013 212.897 296.683 212.987 296.323 212.987ZM332.362 213.302C330.439 213.302 328.788 213.017 327.406 212.446C326.025 211.846 324.958 211.17 324.208 210.419C323.487 209.638 323.126 208.977 323.126 208.437C323.126 208.197 323.186 207.941 323.306 207.671C323.457 207.401 323.637 207.19 323.847 207.04C324.057 206.86 324.268 206.77 324.478 206.77C324.778 206.77 325.078 206.965 325.379 207.356C325.709 207.716 326.13 208.152 326.64 208.662C327.181 209.143 327.887 209.578 328.758 209.969C329.629 210.329 330.77 210.509 332.181 210.509C333.593 210.509 334.794 210.284 335.785 209.833C336.777 209.353 337.542 208.662 338.083 207.761C338.624 206.83 338.894 205.674 338.894 204.292C338.894 202.851 338.624 201.694 338.083 200.823C337.542 199.952 336.822 199.232 335.921 198.661C335.05 198.09 334.089 197.61 333.037 197.219C331.986 196.829 330.92 196.423 329.839 196.003C328.788 195.582 327.812 195.072 326.911 194.471C326.01 193.841 325.289 193.03 324.748 192.039C324.208 191.017 323.937 189.726 323.937 188.164C323.937 186.542 324.238 185.206 324.838 184.155C325.439 183.073 326.205 182.233 327.136 181.632C328.097 181.031 329.133 180.611 330.244 180.37C331.355 180.1 332.437 179.965 333.488 179.965C334.329 179.965 335.185 180.04 336.056 180.19C336.957 180.31 337.783 180.491 338.534 180.731C339.284 180.971 339.885 181.271 340.336 181.632C340.816 181.962 341.056 182.338 341.056 182.758C341.056 182.938 340.996 183.164 340.876 183.434C340.786 183.674 340.651 183.899 340.471 184.11C340.29 184.32 340.05 184.425 339.75 184.425C339.48 184.425 339.104 184.29 338.624 184.02C338.143 183.719 337.482 183.434 336.641 183.164C335.831 182.863 334.764 182.713 333.443 182.713C332.362 182.713 331.31 182.863 330.289 183.164C329.298 183.464 328.487 184.005 327.857 184.785C327.226 185.536 326.911 186.572 326.911 187.894C326.911 189.095 327.181 190.071 327.721 190.822C328.292 191.543 329.013 192.129 329.884 192.579C330.785 193.03 331.761 193.45 332.812 193.841C333.863 194.201 334.914 194.621 335.966 195.102C337.047 195.552 338.023 196.138 338.894 196.859C339.795 197.55 340.516 198.466 341.056 199.607C341.597 200.748 341.867 202.22 341.867 204.022C341.867 206.154 341.462 207.911 340.651 209.293C339.84 210.644 338.714 211.65 337.272 212.311C335.861 212.972 334.224 213.302 332.362 213.302Z" fill="white"/>
<path d="M278.293 237.411L280.913 242.719L286.77 243.569L282.531 247.7L283.531 253.533L278.293 250.78L273.054 253.533L274.055 247.7L269.815 243.569L275.673 242.719L278.293 237.411Z" fill="white"/>
<path d="M299.166 237.411L301.784 242.719L307.642 243.569L303.403 247.7L304.404 253.533L299.166 250.78L293.926 253.533L294.927 247.7L290.688 243.569L296.546 242.719L299.166 237.411Z" fill="white"/>
<path d="M320.038 237.411L322.657 242.719L328.515 243.569L324.277 247.7L325.277 253.533L320.038 250.78L314.799 253.533L315.801 247.7L311.561 243.569L317.418 242.719L320.038 237.411Z" fill="white"/>
<path d="M340.912 237.411L343.531 242.719L349.388 243.569L345.149 247.7L346.149 253.533L340.912 250.78L335.672 253.533L336.673 247.7L332.435 243.569L338.292 242.719L340.912 237.411" fill="white"/>
<path d="M182.643 125.201H175.241V131.924C175.241 133.908 173.171 135.213 171.381 134.36L152.19 125.201H118.277C114.134 125.201 110.775 121.843 110.775 117.699V71.2494C110.775 67.1067 114.134 63.748 118.277 63.748H182.643C186.787 63.748 190.146 67.1067 190.146 71.2494V117.699C190.146 121.843 186.787 125.201 182.643 125.201" fill="#55BBED"/>
<path d="M130.818 117.699V71.2494C130.818 67.1067 134.177 63.748 138.321 63.748H118.277C114.134 63.748 110.775 67.1067 110.775 71.2494V117.699C110.775 121.843 114.134 125.201 118.277 125.201H138.321C134.177 125.201 130.818 121.843 130.818 117.699Z" fill="#3D91CE"/>
<path d="M143.458 87.4547H126.155V82.192H147.723V83.1907C147.723 85.5467 145.814 87.4547 143.458 87.4547" fill="#3D91CE"/>
<path d="M164.077 98.2027H126.155V92.9387H168.341V93.9387C168.341 96.2934 166.431 98.2027 164.077 98.2027Z" fill="#3D91CE"/>
<path d="M153.689 108.951H126.155V103.685H156.935V105.704C156.935 107.497 155.482 108.951 153.689 108.951Z" fill="#3D91CE"/>
<path d="M171.644 108.951H165.008C163.215 108.951 161.762 107.497 161.762 105.704V103.685H174.891V105.704C174.891 107.497 173.438 108.951 171.644 108.951" fill="#3D91CE"/>
<path d="M145.091 85.2614H128.787C127.334 85.2614 126.155 84.0827 126.155 82.6307C126.155 81.176 127.334 79.9974 128.787 79.9974H145.091C146.545 79.9974 147.723 81.176 147.723 82.6307C147.723 84.0827 146.545 85.2614 145.091 85.2614Z" fill="white"/>
<path d="M165.709 96.0094H128.787C127.334 96.0094 126.155 94.8307 126.155 93.3774C126.155 91.9241 127.334 90.7454 128.787 90.7454H165.709C167.163 90.7454 168.341 91.9241 168.341 93.3774C168.341 94.8307 167.163 96.0094 165.709 96.0094" fill="white"/>
<path d="M154.303 106.757H128.787C127.334 106.757 126.155 105.579 126.155 104.125C126.155 102.672 127.334 101.493 128.787 101.493H154.303C155.757 101.493 156.935 102.672 156.935 104.125C156.935 105.579 155.757 106.757 154.303 106.757" fill="white"/>
<path d="M172.259 106.757H164.394C162.94 106.757 161.762 105.579 161.762 104.125C161.762 102.672 162.94 101.493 164.394 101.493H172.259C173.712 101.493 174.891 102.672 174.891 104.125C174.891 105.579 173.712 106.757 172.259 106.757Z" fill="white"/>
<path d="M211.636 150.089H219.039V156.813C219.039 158.797 221.108 160.103 222.899 159.248L242.09 150.089H266.156C270.3 150.089 273.659 146.731 273.659 142.587V106.477C273.659 102.333 270.3 98.9747 266.156 98.9747H211.636C207.492 98.9747 204.134 102.333 204.134 106.477V142.587C204.134 146.731 207.492 150.089 211.636 150.089" fill="#FAC109"/>
<path d="M233.792 149.7H229.332C225.19 149.7 221.831 146.341 221.831 142.197V106.088C221.831 102.775 223.98 99.9694 226.96 98.9747H211.636C207.492 98.9747 204.134 102.333 204.134 106.477V142.587C204.134 146.731 207.492 150.089 211.636 150.089H219.039V156.813C219.039 158.797 221.108 160.103 222.899 159.248L236.736 152.644C236.736 151.019 235.418 149.7 233.792 149.7Z" fill="#F89A0F"/>
<path d="M236.584 118.199H218.508V113.048H239.606V115.176C239.606 116.845 238.253 118.199 236.584 118.199Z" fill="#F89A0F"/>
<path d="M236.584 128.713H218.508V123.563H239.606V125.691C239.606 127.36 238.253 128.713 236.584 128.713Z" fill="#F89A0F"/>
<path d="M229.718 139.227H218.508V134.077H232.74V136.205C232.74 137.875 231.388 139.227 229.718 139.227Z" fill="#F89A0F"/>
<path d="M260.039 118.199H246.596C244.927 118.199 243.573 116.845 243.573 115.176V113.048H261.795V116.443C261.795 117.412 261.008 118.199 260.039 118.199Z" fill="#F89A0F"/>
<path d="M258.771 139.227H239.871C238.123 139.227 236.706 137.809 236.706 136.061V134.077H261.794V136.205C261.794 137.875 260.441 139.227 258.771 139.227Z" fill="#F89A0F"/>
<path d="M237.032 116.053H221.082C219.66 116.053 218.508 114.9 218.508 113.477C218.508 112.056 219.66 110.903 221.082 110.903H237.032C238.453 110.903 239.606 112.056 239.606 113.477C239.606 114.9 238.453 116.053 237.032 116.053" fill="white"/>
<path d="M237.032 126.567H221.082C219.66 126.567 218.508 125.415 218.508 123.992C218.508 122.569 219.66 121.417 221.082 121.417H237.032C238.453 121.417 239.606 122.569 239.606 123.992C239.606 125.415 238.453 126.567 237.032 126.567" fill="white"/>
<path d="M230.165 137.081H221.082C219.66 137.081 218.508 135.928 218.508 134.507C218.508 133.084 219.66 131.932 221.082 131.932H230.165C231.586 131.932 232.74 133.084 232.74 134.507C232.74 135.928 231.586 137.081 230.165 137.081" fill="white"/>
<path d="M259.22 116.053H246.148C244.725 116.053 243.573 114.9 243.573 113.477C243.573 112.056 244.725 110.903 246.148 110.903H259.22C260.641 110.903 261.795 112.056 261.795 113.477C261.795 114.9 260.641 116.053 259.22 116.053Z" fill="white"/>
<path d="M258.772 128.713H246.596C244.927 128.713 243.573 127.36 243.573 125.691V123.563H261.795V125.691C261.795 127.36 260.441 128.713 258.772 128.713Z" fill="#F89A0F"/>
<path d="M259.22 126.567H246.148C244.725 126.567 243.573 125.415 243.573 123.992C243.573 122.569 244.725 121.417 246.148 121.417H259.22C260.641 121.417 261.795 122.569 261.795 123.992C261.795 125.415 260.641 126.567 259.22 126.567Z" fill="white"/>
<path d="M259.219 137.081H239.281C237.859 137.081 236.706 135.928 236.706 134.507C236.706 133.084 237.859 131.932 239.281 131.932H259.219C260.641 131.932 261.794 133.084 261.794 134.507C261.794 135.928 260.641 137.081 259.219 137.081Z" fill="white"/>
<path d="M157.945 468.489C155.929 468.856 153.998 467.517 153.632 465.501C153.266 463.484 154.605 461.553 156.621 461.188C158.638 460.823 160.569 462.16 160.934 464.177C161.3 466.195 159.961 468.125 157.945 468.489ZM155.877 455.871C150.945 456.765 147.672 461.488 148.566 466.419C149.461 471.351 154.184 474.624 159.114 473.729L228.561 461.14L225.324 443.281L155.877 455.871" fill="#D7F2FB"/>
<path d="M207.606 446.493L210.844 464.353L228.561 461.14L225.324 443.281L207.606 446.493" fill="#55BBED"/>
<path d="M235.267 450.701C234.335 445.569 237.743 440.653 242.875 439.724L254.173 437.676C249.17 430.424 240.214 426.379 230.978 428.132C219.193 430.368 210.969 441.636 212.467 453.536C214.127 466.72 226.463 475.647 239.365 473.307C248.533 471.645 255.418 464.751 257.542 456.263L246.246 458.311C241.113 459.243 236.197 455.835 235.267 450.701" fill="#D7F2FB"/>
<path d="M213.323 458.451L171.854 465.969C169.883 466.325 167.997 465.017 167.638 463.047L167.609 462.883C167.251 460.912 168.559 459.024 170.53 458.667L211.999 451.149L213.323 458.451" fill="#55BBED"/>
</svg>
