<svg width="542" height="542" viewBox="0 0 542 542" fill="none" xmlns="http://www.w3.org/2000/svg">
<g filter="url(#filter0_d_633_2)">
<rect x="15" y="15" width="512" height="512" rx="256" fill="white"/>
<path d="M123.168 301.041C122.148 301.494 120.987 301.721 119.685 301.721C118.438 301.721 117.022 300.814 115.437 299.002C113.907 297.189 112.52 294.924 111.273 292.205C108.555 286.088 107.195 280.112 107.195 274.278C107.195 270.597 107.903 267.68 109.319 265.527C109.319 265.527 111.953 262.639 117.221 256.861C119.713 254.029 122.403 251.537 125.292 249.385C158.71 225.029 192.553 211.945 226.82 210.133C231.635 209.85 235.373 209.708 238.035 209.708C240.697 209.708 242.85 210.104 244.492 210.897C246.191 211.634 247.806 212.625 249.335 213.871C250.864 215.061 252.309 216.42 253.668 217.949C255.027 219.422 256.217 220.895 257.236 222.367C259.389 225.369 260.465 227.493 260.465 228.739C260.465 229.985 260.21 231.458 259.7 233.157C259.19 234.8 258.596 236.612 257.916 238.595C257.236 240.521 256.5 242.446 255.707 244.372L253.838 249.3C245.398 271.106 235.373 291.582 223.762 310.727C219.91 317.127 216.682 322.055 214.076 325.51C211.527 329.021 209.375 331.825 207.619 333.921C205.92 336.017 204.079 338.084 202.097 340.123C200.114 342.162 197.99 344.088 195.725 345.9C193.459 347.77 191.137 349.412 188.758 350.828C183.547 353.887 178.393 355.416 173.295 355.416C169.896 355.416 166.045 353.632 161.74 350.063C157.209 346.269 154.943 342.417 154.943 338.509C154.943 332.165 161.146 322.904 173.55 310.727C180.063 304.326 185.982 299.144 191.307 295.179C196.631 291.157 200.482 288.438 202.861 287.022C211.754 270.2 217.22 259.665 219.259 255.417L224.017 245.307C226.396 240.039 227.585 236.896 227.585 235.876C227.585 233.327 226.226 232.053 223.507 232.053C220.788 232.053 217.305 232.704 213.057 234.007C208.809 235.31 204.249 237.094 199.378 239.359C194.507 241.568 189.438 244.174 184.17 247.176C178.959 250.121 173.833 253.265 168.792 256.606C163.808 259.892 159.021 263.29 154.434 266.802C149.902 270.313 145.881 273.712 142.369 276.997C134.609 284.19 130.361 289.741 129.625 293.649C128.889 297.161 126.736 299.625 123.168 301.041ZM403.369 239.529C397.762 239.529 393.854 236.867 391.645 231.543C383.488 231.543 374.539 233.525 364.797 237.49C358.736 239.982 354.658 242.276 352.562 244.372C350.467 246.468 349.334 248.11 349.164 249.3C349.051 250.489 349.646 251.509 350.948 252.358C352.251 253.151 354.063 253.916 356.386 254.652C358.765 255.389 361.512 256.125 364.627 256.861C380.939 260.656 391.276 263.29 395.638 264.763C404.304 267.651 410.789 270.823 415.094 274.278C419.172 277.733 421.211 282.435 421.211 288.382C421.211 293.31 419.682 297.473 416.623 300.871C413.621 304.27 409.628 307.3 404.644 309.962C399.659 312.624 394.08 315.003 387.906 317.099C381.789 319.138 375.304 320.894 368.45 322.366C361.653 323.839 354.941 325.057 348.314 326.02C335.344 327.832 324.271 328.738 315.095 328.738C298.386 328.738 285.5 326.728 276.438 322.706C273.039 321.177 270.264 317.354 268.111 311.236C266.412 306.195 265.562 302.061 265.562 298.832C265.562 295.547 265.846 293.734 266.412 293.395C266.979 293.055 268.14 293.055 269.896 293.395C271.651 293.678 273.945 294.188 276.777 294.924L286.973 297.643C302.775 301.607 319.484 303.59 337.1 303.59C350.07 303.59 361.059 302.429 370.064 300.106C375.389 298.69 378.221 297.104 378.561 295.349C378.787 293.819 374.596 291.922 365.986 289.656C362.078 288.58 357.547 287.447 352.393 286.258C327.414 280.197 312.348 276.289 307.193 274.533C302.039 272.777 298.669 271.22 297.083 269.86C295.554 268.501 294.279 267 293.26 265.357C291.391 262.129 290.456 259.07 290.456 256.182C290.456 253.236 290.598 250.971 290.881 249.385C291.221 247.799 291.674 246.326 292.24 244.967C293.43 242.191 294.931 240.294 296.743 239.274C311.3 231.118 332.682 223.953 360.889 217.779C385.98 212.229 406.626 209.453 422.825 209.453C426.11 209.453 428.574 210.02 430.217 211.152C433.049 213.248 434.295 215.485 433.955 217.864C433.615 220.243 432.879 222.452 431.746 224.491C430.67 226.474 429.311 228.286 427.668 229.929C426.025 231.515 424.185 232.931 422.146 234.177C420.163 235.366 418.096 236.357 415.943 237.15C411.639 238.736 407.447 239.529 403.369 239.529Z" fill="black"/>
</g>
<defs>
<filter id="filter0_d_633_2" x="0" y="0" width="542" height="542" filterUnits="userSpaceOnUse" color-interpolation-filters="sRGB">
<feFlood flood-opacity="0" result="BackgroundImageFix"/>
<feColorMatrix in="SourceAlpha" type="matrix" values="0 0 0 0 0 0 0 0 0 0 0 0 0 0 0 0 0 0 127 0" result="hardAlpha"/>
<feOffset/>
<feGaussianBlur stdDeviation="7.5"/>
<feComposite in2="hardAlpha" operator="out"/>
<feColorMatrix type="matrix" values="0 0 0 0 0 0 0 0 0 0 0 0 0 0 0 0 0 0 0.25 0"/>
<feBlend mode="normal" in2="BackgroundImageFix" result="effect1_dropShadow_633_2"/>
<feBlend mode="normal" in="SourceGraphic" in2="effect1_dropShadow_633_2" result="shape"/>
</filter>
</defs>
</svg>
